<?xml version="1.0" encoding="utf-8"?>
<!-- Generator: Adobe Illustrator 12.0.0, SVG Export Plug-In . SVG Version: 6.00 Build 51448)  -->
<!DOCTYPE svg PUBLIC "-//W3C//DTD SVG 1.1//EN" "http://www.w3.org/Graphics/SVG/1.1/DTD/svg11.dtd" [
	<!ENTITY ns_svg "http://www.w3.org/2000/svg">
	<!ENTITY ns_xlink "http://www.w3.org/1999/xlink">
]>
<svg  version="1.1" id="Layer_1" xmlns="&ns_svg;" xmlns:xlink="&ns_xlink;" width="644" height="481.431"
	 viewBox="0 0 644 481.431" overflow="visible" enable-background="new 0 0 644 481.431" xml:space="preserve">
<rect x="0.472" y="0.233" width="643.394" height="481.197"/>
<g id="Layer_2">
	<circle fill="none" stroke="#808080" cx="150.067" cy="125.266" r="26.444"/>
	<path fill="none" stroke="#FFFFFF" d="M125.062,133.894c-0.933-2.704-1.439-5.606-1.439-8.627
		c0-14.604,11.839-26.444,26.444-26.444c11.609,0,21.472,7.482,25.028,17.886"/>
	
		<ellipse transform="matrix(-0.9953 0.0971 -0.0971 -0.9953 314.4604 239.888)" fill="none" stroke="#808080" cx="151.394" cy="127.595" rx="53.541" ry="52.606"/>
	<path fill="none" stroke="#FFFFFF" d="M100.034,112.877c6.005-20.006,23.851-35.455,46.253-37.64
		c29.43-2.871,55.576,18.242,58.396,47.159c0.494,5.06,0.24,10.02-0.671,14.781"/>
	<ellipse fill="none" stroke="#808080" cx="150.64" cy="124.615" rx="83.984" ry="83.25"/>
	<path fill="none" stroke="#FFFFFF" d="M86.603,178.479c-12.441-14.519-19.947-33.322-19.947-53.863
		c0-45.978,37.602-83.25,83.983-83.25c25.593,0,48.511,11.346,63.916,29.242"/>
	
		<ellipse transform="matrix(-0.9976 0.0694 -0.0694 -0.9976 351.9034 271.4793)" fill="none" stroke="#808080" cx="171.238" cy="141.85" rx="106.465" ry="103.784"/>
	<path fill="none" stroke="#FFFFFF" d="M66.925,162.974c-0.931-4.472-1.571-9.057-1.896-13.737
		c-3.977-57.179,40.351-106.84,99.008-110.919c39.318-2.734,75.092,15.704,95.608,45.379"/>
	
		<ellipse transform="matrix(-0.8191 0.5737 -0.5737 -0.8191 431.3814 258.9092)" fill="none" stroke="#0000FF" cx="174.866" cy="197.475" rx="123.369" ry="181.634"/>
	<path fill="none" stroke="#00F6FF" d="M85.979,40.176c56.2-24.137,137.388,11.497,189.937,86.526
		c48.327,69.002,57.064,149.38,25.572,196.515"/>
	<circle fill="#00FF00" cx="166.391" cy="105.025" r="3.755"/>
	<circle fill="#00FF00" cx="140.11" cy="179.134" r="3.754"/>
	<circle fill="#00FF00" cx="101.698" cy="192.414" r="3.755"/>
	<circle fill="#00FF00" cx="65.62" cy="127.715" r="3.754"/>
	<circle fill="#D04040" cx="150.883" cy="124.939" r="3.754"/>
	<circle fill="#00CCCC" cx="242.517" cy="360.875" r="3.754"/>
	<text transform="matrix(1 0 0 1 226.8452 354.123)"><tspan x="0" y="0" fill="#00CCCC" font-family="'Arial-BoldMT'" font-size="15.6707">E</tspan><tspan x="10.452" y="0" fill="#00CCCC" font-family="'Arial-BoldMT'" font-size="15.6707">r</tspan><tspan x="16.551" y="0" fill="#00CCCC" font-family="'Arial-BoldMT'" font-size="15.6707">i</tspan><tspan x="20.904" y="0" fill="#00CCCC" font-family="'Arial-BoldMT'" font-size="15.6707">s</tspan></text>
	<text transform="matrix(1 0 0 1 38.1387 122.5376)"><tspan x="0" y="0" fill="#00FF00" font-family="'Arial-BoldMT'" font-size="10.4471">P</tspan><tspan x="6.968" y="0" fill="#00FF00" font-family="'Arial-BoldMT'" font-size="10.4471">l</tspan><tspan x="9.871" y="0" fill="#00FF00" font-family="'Arial-BoldMT'" font-size="10.4471">u</tspan><tspan x="16.252" y="0" fill="#00FF00" font-family="'Arial-BoldMT'" font-size="10.4471">t</tspan><tspan x="19.731" y="0" fill="#00FF00" font-family="'Arial-BoldMT'" font-size="10.4471">o</tspan></text>
	<text transform="matrix(1 0 0 1 90.1563 206.1143)"><tspan x="0" y="0" fill="#00FF00" font-family="'Arial-BoldMT'" font-size="10.4471">N</tspan><tspan x="7.544" y="0" fill="#00FF00" font-family="'Arial-BoldMT'" font-size="10.4471">e</tspan><tspan x="13.355" y="0" fill="#00FF00" font-family="'Arial-BoldMT'" font-size="10.4471">p</tspan><tspan x="19.736" y="0" fill="#00FF00" font-family="'Arial-BoldMT'" font-size="10.4471">t</tspan><tspan x="23.215" y="0" fill="#00FF00" font-family="'Arial-BoldMT'" font-size="10.4471">u</tspan><tspan x="29.597" y="0" fill="#00FF00" font-family="'Arial-BoldMT'" font-size="10.4471">n</tspan><tspan x="35.979" y="0" fill="#00FF00" font-family="'Arial-BoldMT'" font-size="10.4471">e</tspan></text>
	<text transform="matrix(1 0 0 1 131.02 173.25)"><tspan x="0" y="0" fill="#00FF00" font-family="'Arial-BoldMT'" font-size="10.4471">U</tspan><tspan x="7.544" y="0" fill="#00FF00" font-family="'Arial-BoldMT'" font-size="10.4471">r</tspan><tspan x="11.61" y="0" fill="#00FF00" font-family="'Arial-BoldMT'" font-size="10.4471">a</tspan><tspan x="17.42" y="0" fill="#00FF00" font-family="'Arial-BoldMT'" font-size="10.4471">n</tspan><tspan x="23.802" y="0" fill="#00FF00" font-family="'Arial-BoldMT'" font-size="10.4471">u</tspan><tspan x="30.184" y="0" fill="#00FF00" font-family="'Arial-BoldMT'" font-size="10.4471">s</tspan></text>
	<text transform="matrix(1 0 0 1 165.7354 117.5317)"><tspan x="0" y="0" fill="#00FF00" font-family="'Arial-BoldMT'" font-size="10.4471">S</tspan><tspan x="6.968" y="0" fill="#00FF00" font-family="'Arial-BoldMT'" font-size="10.4471">a</tspan><tspan x="12.778" y="0" fill="#00FF00" font-family="'Arial-BoldMT'" font-size="10.4471">t</tspan><tspan x="16.257" y="0" fill="#00FF00" font-family="'Arial-BoldMT'" font-size="10.4471">u</tspan><tspan x="22.639" y="0" fill="#00FF00" font-family="'Arial-BoldMT'" font-size="10.4471">r</tspan><tspan x="26.705" y="0" fill="#00FF00" font-family="'Arial-BoldMT'" font-size="10.4471">n</tspan></text>
	<text transform="matrix(1 0 0 1 18.7734 432.333)"><tspan x="0" y="0" fill="#FFFFFF" font-family="'Arial-BoldMT'" font-size="28">O</tspan><tspan x="21.779" y="0" fill="#FFFFFF" font-family="'Arial-BoldMT'" font-size="28">r</tspan><tspan x="32.676" y="0" fill="#FFFFFF" font-family="'Arial-BoldMT'" font-size="28">b</tspan><tspan x="49.779" y="0" fill="#FFFFFF" font-family="'Arial-BoldMT'" font-size="28">i</tspan><tspan x="57.559" y="0" fill="#FFFFFF" font-family="'Arial-BoldMT'" font-size="28">t</tspan><tspan x="66.883" y="0" fill="#FFFFFF" font-family="'Arial-BoldMT'" font-size="28"> </tspan><tspan x="74.662" y="0" fill="#FFFFFF" font-family="'Arial-BoldMT'" font-size="28">o</tspan><tspan x="91.766" y="0" fill="#FFFFFF" font-family="'Arial-BoldMT'" font-size="28">f</tspan><tspan x="101.09" y="0" fill="#FFFFFF" font-family="'Arial-BoldMT'" font-size="28"> </tspan><tspan x="108.869" y="0" fill="#FFFFFF" font-family="'Arial-BoldMT'" font-size="28">E</tspan><tspan x="127.545" y="0" fill="#FFFFFF" font-family="'Arial-BoldMT'" font-size="28">r</tspan><tspan x="138.441" y="0" fill="#FFFFFF" font-family="'Arial-BoldMT'" font-size="28">i</tspan><tspan x="146.221" y="0" fill="#FFFFFF" font-family="'Arial-BoldMT'" font-size="28">s</tspan><tspan x="14.366" y="33.6" fill="#FFFFFF" font-family="'ArialMT'" font-size="21">(</tspan><tspan x="21.359" y="33.6" fill="#FFFFFF" font-family="'ArialMT'" font-size="21">1</tspan><tspan x="33.038" y="33.6" fill="#FFFFFF" font-family="'ArialMT'" font-size="21">3</tspan><tspan x="44.717" y="33.6" fill="#FFFFFF" font-family="'ArialMT'" font-size="21">6</tspan><tspan x="56.396" y="33.6" fill="#FFFFFF" font-family="'ArialMT'" font-size="21">1</tspan><tspan x="68.076" y="33.6" fill="#FFFFFF" font-family="'ArialMT'" font-size="21">9</tspan><tspan x="79.755" y="33.6" fill="#FFFFFF" font-family="'ArialMT'" font-size="21">9</tspan><tspan x="91.434" y="33.6" fill="#FFFFFF" font-family="'ArialMT'" font-size="21"> </tspan><tspan x="97.269" y="33.6" fill="#FFFFFF" font-family="'ArialMT'" font-size="21">E</tspan><tspan x="111.275" y="33.6" fill="#FFFFFF" font-family="'ArialMT'" font-size="21">r</tspan><tspan x="118.269" y="33.6" fill="#FFFFFF" font-family="'ArialMT'" font-size="21">i</tspan><tspan x="122.934" y="33.6" fill="#FFFFFF" font-family="'ArialMT'" font-size="21">s</tspan><tspan x="133.434" y="33.6" fill="#FFFFFF" font-family="'ArialMT'" font-size="21">)</tspan><tspan x="140.427" y="33.6" fill="#FFFFFF" font-family="'FranklinGothic-Medium'" font-size="28"> </tspan></text>
	<text transform="matrix(1 0 0 1 233.6699 426.333)"><tspan x="0" y="0" fill="#FFFFFF" font-family="'ArialMT'" font-size="16">P</tspan><tspan x="10.672" y="0" fill="#FFFFFF" font-family="'ArialMT'" font-size="16">e</tspan><tspan x="19.57" y="0" fill="#FFFFFF" font-family="'ArialMT'" font-size="16">r</tspan><tspan x="24.898" y="0" fill="#FFFFFF" font-family="'ArialMT'" font-size="16">i</tspan><tspan x="28.453" y="0" fill="#FFFFFF" font-family="'ArialMT'" font-size="16">h</tspan><tspan x="37.352" y="0" fill="#FFFFFF" font-family="'ArialMT'" font-size="16">e</tspan><tspan x="46.25" y="0" fill="#FFFFFF" font-family="'ArialMT'" font-size="16">l</tspan><tspan x="49.805" y="0" fill="#FFFFFF" font-family="'ArialMT'" font-size="16">i</tspan><tspan x="53.359" y="0" fill="#FFFFFF" font-family="'ArialMT'" font-size="16">o</tspan><tspan x="62.258" y="0" fill="#FFFFFF" font-family="'ArialMT'" font-size="16">n</tspan><tspan x="71.156" y="0" fill="#FFFFFF" font-family="'ArialMT'" font-size="16">:</tspan><tspan x="75.602" y="0" fill="#FFFFFF" font-family="'ArialMT'" font-size="16"> </tspan><tspan x="80.047" y="0" fill="#FFFFFF" font-family="'ArialMT'" font-size="16">3</tspan><tspan x="88.945" y="0" fill="#FFFFFF" font-family="'ArialMT'" font-size="16">7</tspan><tspan x="97.844" y="0" fill="#FFFFFF" font-family="'ArialMT'" font-size="16">.</tspan><tspan x="102.289" y="0" fill="#FFFFFF" font-family="'ArialMT'" font-size="16">7</tspan><tspan x="111.188" y="0" fill="#FFFFFF" font-family="'ArialMT'" font-size="16">7</tspan><tspan x="120.086" y="0" fill="#FFFFFF" font-family="'ArialMT'" font-size="16"> </tspan><tspan x="124.531" y="0" fill="#FFFFFF" font-family="'ArialMT'" font-size="16">A</tspan><tspan x="135.203" y="0" fill="#FFFFFF" font-family="'ArialMT'" font-size="16">U</tspan><tspan x="146.758" y="0" fill="#FFFFFF" font-family="'ArialMT'" font-size="16" letter-spacing="28">	</tspan><tspan x="180" y="0" fill="#FFFFFF" font-family="'ArialMT'" font-size="16" letter-spacing="31">	</tspan><tspan x="216" y="0" fill="#FFFFFF" font-family="'ArialMT'" font-size="16">E</tspan><tspan x="226.672" y="0" fill="#FFFFFF" font-family="'ArialMT'" font-size="16">c</tspan><tspan x="234.672" y="0" fill="#FFFFFF" font-family="'ArialMT'" font-size="16">c</tspan><tspan x="242.672" y="0" fill="#FFFFFF" font-family="'ArialMT'" font-size="16">e</tspan><tspan x="251.57" y="0" fill="#FFFFFF" font-family="'ArialMT'" font-size="16">n</tspan><tspan x="260.469" y="0" fill="#FFFFFF" font-family="'ArialMT'" font-size="16">t</tspan><tspan x="264.914" y="0" fill="#FFFFFF" font-family="'ArialMT'" font-size="16">r</tspan><tspan x="270.242" y="0" fill="#FFFFFF" font-family="'ArialMT'" font-size="16">i</tspan><tspan x="273.797" y="0" fill="#FFFFFF" font-family="'ArialMT'" font-size="16">c</tspan><tspan x="281.797" y="0" fill="#FFFFFF" font-family="'ArialMT'" font-size="16">i</tspan><tspan x="285.352" y="0" fill="#FFFFFF" font-family="'ArialMT'" font-size="16">t</tspan><tspan x="289.797" y="0" fill="#FFFFFF" font-family="'ArialMT'" font-size="16">y</tspan><tspan x="297.797" y="0" fill="#FFFFFF" font-family="'ArialMT'" font-size="16">:</tspan><tspan x="302.242" y="0" fill="#FFFFFF" font-family="'ArialMT'" font-size="16"> </tspan><tspan x="306.688" y="0" fill="#FFFFFF" font-family="'ArialMT'" font-size="16">0</tspan><tspan x="315.586" y="0" fill="#FFFFFF" font-family="'ArialMT'" font-size="16">.</tspan><tspan x="320.031" y="0" fill="#FFFFFF" font-family="'ArialMT'" font-size="16">4</tspan><tspan x="328.93" y="0" fill="#FFFFFF" font-family="'ArialMT'" font-size="16">4</tspan><tspan x="337.828" y="0" fill="#FFFFFF" font-family="'ArialMT'" font-size="16"> </tspan><tspan x="0" y="19.2" fill="#FFFFFF" font-family="'ArialMT'" font-size="16">A</tspan><tspan x="10.672" y="19.2" fill="#FFFFFF" font-family="'ArialMT'" font-size="16">p</tspan><tspan x="19.57" y="19.2" fill="#FFFFFF" font-family="'ArialMT'" font-size="16">h</tspan><tspan x="28.469" y="19.2" fill="#FFFFFF" font-family="'ArialMT'" font-size="16">e</tspan><tspan x="37.367" y="19.2" fill="#FFFFFF" font-family="'ArialMT'" font-size="16">l</tspan><tspan x="40.922" y="19.2" fill="#FFFFFF" font-family="'ArialMT'" font-size="16">i</tspan><tspan x="44.477" y="19.2" fill="#FFFFFF" font-family="'ArialMT'" font-size="16">o</tspan><tspan x="53.375" y="19.2" fill="#FFFFFF" font-family="'ArialMT'" font-size="16">n</tspan><tspan x="62.273" y="19.2" fill="#FFFFFF" font-family="'ArialMT'" font-size="16">:</tspan><tspan x="66.719" y="19.2" fill="#FFFFFF" font-family="'ArialMT'" font-size="16"> </tspan><tspan x="71.164" y="19.2" fill="#FFFFFF" font-family="'ArialMT'" font-size="16">9</tspan><tspan x="80.063" y="19.2" fill="#FFFFFF" font-family="'ArialMT'" font-size="16">7</tspan><tspan x="88.961" y="19.2" fill="#FFFFFF" font-family="'ArialMT'" font-size="16">.</tspan><tspan x="93.406" y="19.2" fill="#FFFFFF" font-family="'ArialMT'" font-size="16">5</tspan><tspan x="102.305" y="19.2" fill="#FFFFFF" font-family="'ArialMT'" font-size="16">6</tspan><tspan x="111.203" y="19.2" fill="#FFFFFF" font-family="'ArialMT'" font-size="16"> </tspan><tspan x="115.648" y="19.2" fill="#FFFFFF" font-family="'ArialMT'" font-size="16">A</tspan><tspan x="126.32" y="19.2" fill="#FFFFFF" font-family="'ArialMT'" font-size="16">U</tspan><tspan x="137.875" y="19.2" fill="#FFFFFF" font-family="'ArialMT'" font-size="16" letter-spacing="1">	</tspan><tspan x="144" y="19.2" fill="#FFFFFF" font-family="'ArialMT'" font-size="16" letter-spacing="31">	</tspan><tspan x="180" y="19.2" fill="#FFFFFF" font-family="'ArialMT'" font-size="16" letter-spacing="31">	</tspan><tspan x="216" y="19.2" fill="#FFFFFF" font-family="'ArialMT'" font-size="16">I</tspan><tspan x="220.445" y="19.2" fill="#FFFFFF" font-family="'ArialMT'" font-size="16">n</tspan><tspan x="229.344" y="19.2" fill="#FFFFFF" font-family="'ArialMT'" font-size="16">c</tspan><tspan x="237.344" y="19.2" fill="#FFFFFF" font-family="'ArialMT'" font-size="16">l</tspan><tspan x="240.898" y="19.2" fill="#FFFFFF" font-family="'ArialMT'" font-size="16">i</tspan><tspan x="244.453" y="19.2" fill="#FFFFFF" font-family="'ArialMT'" font-size="16">n</tspan><tspan x="253.352" y="19.2" fill="#FFFFFF" font-family="'ArialMT'" font-size="16">a</tspan><tspan x="262.25" y="19.2" fill="#FFFFFF" font-family="'ArialMT'" font-size="16">t</tspan><tspan x="266.695" y="19.2" fill="#FFFFFF" font-family="'ArialMT'" font-size="16">i</tspan><tspan x="270.25" y="19.2" fill="#FFFFFF" font-family="'ArialMT'" font-size="16">o</tspan><tspan x="279.148" y="19.2" fill="#FFFFFF" font-family="'ArialMT'" font-size="16">n</tspan><tspan x="288.047" y="19.2" fill="#FFFFFF" font-family="'ArialMT'" font-size="16">:</tspan><tspan x="292.492" y="19.2" fill="#FFFFFF" font-family="'ArialMT'" font-size="16"> </tspan><tspan x="296.938" y="19.2" fill="#FFFFFF" font-family="'ArialMT'" font-size="16">4</tspan><tspan x="305.836" y="19.2" fill="#FFFFFF" font-family="'ArialMT'" font-size="16">4</tspan><tspan x="314.734" y="19.2" fill="#FFFFFF" font-family="'ArialMT'" font-size="16">°</tspan><tspan x="321.133" y="19.2" fill="#FFFFFF" font-family="'ArialMT'" font-size="16"> </tspan><tspan x="325.578" y="19.2" fill="#FFFFFF" font-family="'ArialMT'" font-size="16"> </tspan><tspan x="330.023" y="19.2" fill="#FFFFFF" font-family="'ArialMT'" font-size="16"> </tspan><tspan x="0" y="38.4" fill="#FFFFFF" font-family="'ArialMT'" font-size="16" letter-spacing="31">	</tspan><tspan x="36" y="38.4" fill="#FFFFFF" font-family="'ArialMT'" font-size="16" letter-spacing="31">	</tspan><tspan x="72" y="38.4" fill="#FFFFFF" font-family="'ArialMT'" font-size="16">O</tspan><tspan x="84.445" y="38.4" fill="#FFFFFF" font-family="'ArialMT'" font-size="16">r</tspan><tspan x="89.773" y="38.4" fill="#FFFFFF" font-family="'ArialMT'" font-size="16">b</tspan><tspan x="98.672" y="38.4" fill="#FFFFFF" font-family="'ArialMT'" font-size="16">i</tspan><tspan x="102.227" y="38.4" fill="#FFFFFF" font-family="'ArialMT'" font-size="16">t</tspan><tspan x="106.672" y="38.4" fill="#FFFFFF" font-family="'ArialMT'" font-size="16">a</tspan><tspan x="115.57" y="38.4" fill="#FFFFFF" font-family="'ArialMT'" font-size="16">l</tspan><tspan x="119.125" y="38.4" fill="#FFFFFF" font-family="'ArialMT'" font-size="16"> </tspan><tspan x="123.57" y="38.4" fill="#FFFFFF" font-family="'ArialMT'" font-size="16">p</tspan><tspan x="132.469" y="38.4" fill="#FFFFFF" font-family="'ArialMT'" font-size="16">e</tspan><tspan x="141.367" y="38.4" fill="#FFFFFF" font-family="'ArialMT'" font-size="16">r</tspan><tspan x="146.695" y="38.4" fill="#FFFFFF" font-family="'ArialMT'" font-size="16">i</tspan><tspan x="150.25" y="38.4" fill="#FFFFFF" font-family="'ArialMT'" font-size="16">o</tspan><tspan x="159.148" y="38.4" fill="#FFFFFF" font-family="'ArialMT'" font-size="16">d</tspan><tspan x="168.047" y="38.4" fill="#FFFFFF" font-family="'ArialMT'" font-size="16">:</tspan><tspan x="172.492" y="38.4" fill="#FFFFFF" font-family="'ArialMT'" font-size="16"> </tspan><tspan x="176.938" y="38.4" fill="#FFFFFF" font-family="'ArialMT'" font-size="16">5</tspan><tspan x="185.836" y="38.4" fill="#FFFFFF" font-family="'ArialMT'" font-size="16">5</tspan><tspan x="194.734" y="38.4" fill="#FFFFFF" font-family="'ArialMT'" font-size="16">7</tspan><tspan x="203.633" y="38.4" fill="#FFFFFF" font-family="'ArialMT'" font-size="16"> </tspan><tspan x="208.078" y="38.4" fill="#FFFFFF" font-family="'ArialMT'" font-size="16">y</tspan><tspan x="216.078" y="38.4" fill="#FFFFFF" font-family="'ArialMT'" font-size="16">e</tspan><tspan x="224.977" y="38.4" fill="#FFFFFF" font-family="'ArialMT'" font-size="16">a</tspan><tspan x="233.875" y="38.4" fill="#FFFFFF" font-family="'ArialMT'" font-size="16">r</tspan><tspan x="239.203" y="38.4" fill="#FFFFFF" font-family="'ArialMT'" font-size="16">s</tspan></text>
	<text transform="matrix(1 0 0 1 16.6699 376.333)"><tspan x="0" y="0" fill="#FFFFFF" font-family="'ArialMT'" font-size="16">1</tspan><tspan x="8.898" y="0" fill="#FFFFFF" font-family="'ArialMT'" font-size="16">1</tspan><tspan x="17.797" y="0" fill="#FFFFFF" font-family="'ArialMT'" font-size="16"> </tspan><tspan x="22.242" y="0" fill="#FFFFFF" font-family="'ArialMT'" font-size="16">O</tspan><tspan x="34.688" y="0" fill="#FFFFFF" font-family="'ArialMT'" font-size="16">c</tspan><tspan x="42.688" y="0" fill="#FFFFFF" font-family="'ArialMT'" font-size="16">t</tspan><tspan x="47.133" y="0" fill="#FFFFFF" font-family="'ArialMT'" font-size="16">o</tspan><tspan x="56.031" y="0" fill="#FFFFFF" font-family="'ArialMT'" font-size="16">b</tspan><tspan x="64.93" y="0" fill="#FFFFFF" font-family="'ArialMT'" font-size="16">e</tspan><tspan x="73.828" y="0" fill="#FFFFFF" font-family="'ArialMT'" font-size="16">r</tspan><tspan x="79.156" y="0" fill="#FFFFFF" font-family="'ArialMT'" font-size="16"> </tspan><tspan x="83.602" y="0" fill="#FFFFFF" font-family="'ArialMT'" font-size="16">2</tspan><tspan x="92.5" y="0" fill="#FFFFFF" font-family="'ArialMT'" font-size="16">0</tspan><tspan x="101.398" y="0" fill="#FFFFFF" font-family="'ArialMT'" font-size="16">0</tspan><tspan x="110.297" y="0" fill="#FFFFFF" font-family="'ArialMT'" font-size="16">6</tspan></text>
</g>
<g id="Layer_3">
	<path fill="none" stroke="#0000FF" d="M467.01,62.697c-47.818,40.492-76.525,88.245-64.119,106.662
		c12.404,18.416,61.223,0.523,109.041-39.967s76.525-88.245,64.121-106.662C563.648,4.311,514.826,22.207,467.01,62.697z"/>
	<path fill="none" stroke="#00CCCC" d="M558.436,80.07c17.619-24.434,25.102-46.228,17.617-57.341
		c-12.404-18.418-61.227-0.522-109.043,39.968c-5.668,4.8-11.068,9.702-16.164,14.645"/>
	<path fill="none" stroke="#808080" d="M421.736,77.215c-0.668,10.582,31.1,21.601,70.961,24.614
		c39.857,3.011,72.711-3.124,73.381-13.705c0.668-10.581-31.102-21.6-70.963-24.612C455.258,60.499,422.406,66.634,421.736,77.215z"
		/>
	<path fill="none" stroke="#FFFFFF" d="M560.563,80.011c-10.707-7.609-35.846-14.262-65.447-16.499
		c-39.043-2.951-71.361,2.875-73.298,13.059"/>
	<path fill="none" stroke="#FFFFFF" d="M425.764,76.714c0.005-0.238,24.891,0.084,55.584,0.72s55.57,1.344,55.564,1.583"/>
	<path fill="none" stroke="#0000FF" d="M534.709,108.132c4.928-5.083,9.52-10.182,13.736-15.229"/>
	<path fill="none" stroke="#00CCCC" d="M558.436,80.07c0.891-1.235,1.756-2.463,2.594-3.684"/>
	<circle fill="#00FF00" cx="426.67" cy="70.573" r="2.521"/>
	<circle fill="#00FF00" cx="467.234" cy="77.516" r="2.521"/>
	<circle fill="#D04040" cx="483.17" cy="77.955" r="2.521"/>
	<circle fill="#00FF00" cx="496.29" cy="77.772" r="2.522"/>
	<path fill="none" stroke="#808080" d="M536.912,79.017c-0.004,0.238-24.891-0.084-55.584-0.72
		c-30.691-0.635-55.57-1.344-55.564-1.583"/>
	<circle fill="#00FF00" cx="441.215" cy="77.517" r="2.521"/>
	<circle fill="#00CCCC" cx="522.127" cy="120.495" r="2.521"/>
	<text transform="matrix(1 0 0 1 525.252 128.6416)"><tspan x="0" y="0" fill="#00CCCC" font-family="'Arial-BoldMT'" font-size="10.5253">E</tspan><tspan x="7.021" y="0" fill="#00CCCC" font-family="'Arial-BoldMT'" font-size="10.5253">r</tspan><tspan x="11.116" y="0" fill="#00CCCC" font-family="'Arial-BoldMT'" font-size="10.5253">i</tspan><tspan x="14.041" y="0" fill="#00CCCC" font-family="'Arial-BoldMT'" font-size="10.5253">s</tspan></text>
	<text transform="matrix(1 0 0 1 405.0859 69.8701)"><tspan x="0" y="0" fill="#00FF00" font-family="'Arial-BoldMT'" font-size="7.0169">P</tspan><tspan x="4.68" y="0" fill="#00FF00" font-family="'Arial-BoldMT'" font-size="7.0169">l</tspan><tspan x="6.63" y="0" fill="#00FF00" font-family="'Arial-BoldMT'" font-size="7.0169">u</tspan><tspan x="10.916" y="0" fill="#00FF00" font-family="'Arial-BoldMT'" font-size="7.0169">t</tspan><tspan x="13.252" y="0" fill="#00FF00" font-family="'Arial-BoldMT'" font-size="7.0169">o</tspan></text>
	<text transform="matrix(1 0 0 1 431.6914 85.9507)"><tspan x="0" y="0" fill="#00FF00" font-family="'Arial-BoldMT'" font-size="7.0169">N</tspan><tspan x="5.067" y="0" fill="#00FF00" font-family="'Arial-BoldMT'" font-size="7.0169">e</tspan><tspan x="8.97" y="0" fill="#00FF00" font-family="'Arial-BoldMT'" font-size="7.0169">p</tspan><tspan x="13.256" y="0" fill="#00FF00" font-family="'Arial-BoldMT'" font-size="7.0169">t</tspan><tspan x="15.593" y="0" fill="#00FF00" font-family="'Arial-BoldMT'" font-size="7.0169">u</tspan><tspan x="19.879" y="0" fill="#00FF00" font-family="'Arial-BoldMT'" font-size="7.0169">n</tspan><tspan x="24.165" y="0" fill="#00FF00" font-family="'Arial-BoldMT'" font-size="7.0169">e</tspan></text>
	<text transform="matrix(1 0 0 1 454.2041 72.209)"><tspan x="0" y="0" fill="#00FF00" font-family="'Arial-BoldMT'" font-size="7.0169">U</tspan><tspan x="5.067" y="0" fill="#00FF00" font-family="'Arial-BoldMT'" font-size="7.0169">r</tspan><tspan x="7.798" y="0" fill="#00FF00" font-family="'Arial-BoldMT'" font-size="7.0169">a</tspan><tspan x="11.7" y="0" fill="#00FF00" font-family="'Arial-BoldMT'" font-size="7.0169">n</tspan><tspan x="15.987" y="0" fill="#00FF00" font-family="'Arial-BoldMT'" font-size="7.0169">u</tspan><tspan x="20.272" y="0" fill="#00FF00" font-family="'Arial-BoldMT'" font-size="7.0169">s</tspan></text>
	<text transform="matrix(1 0 0 1 497.6211 86.3892)"><tspan x="0" y="0" fill="#00FF00" font-family="'Arial-BoldMT'" font-size="7.0169">S</tspan><tspan x="4.681" y="0" fill="#00FF00" font-family="'Arial-BoldMT'" font-size="7.0169">a</tspan><tspan x="8.583" y="0" fill="#00FF00" font-family="'Arial-BoldMT'" font-size="7.0169">t</tspan><tspan x="10.919" y="0" fill="#00FF00" font-family="'Arial-BoldMT'" font-size="7.0169">u</tspan><tspan x="15.205" y="0" fill="#00FF00" font-family="'Arial-BoldMT'" font-size="7.0169">r</tspan><tspan x="17.937" y="0" fill="#00FF00" font-family="'Arial-BoldMT'" font-size="7.0169">n</tspan></text>
</g>
<g id="Layer_4">
	
		<ellipse transform="matrix(-0.3168 0.9485 -0.9485 -0.3168 935.5756 -80.2266)" fill="none" stroke="#0000FF" cx="496.683" cy="296.849" rx="74.459" ry="124.367"/>
	<path fill="none" stroke="#00CCCC" d="M376.598,277.007c-0.646-6.678,0.016-13.248,2.121-19.55
		c13.025-39.005,76.398-52.991,141.55-31.233c35.56,11.874,64.298,31.942,80.95,54.064"/>
	<circle fill="#00CCCC" cx="616.939" cy="321.467" r="2.521"/>
	<text transform="matrix(1 0 0 1 591.8682 325.0449)"><tspan x="0" y="0" fill="#00CCCC" font-family="'Arial-BoldMT'" font-size="10.5253">E</tspan><tspan x="7.021" y="0" fill="#00CCCC" font-family="'Arial-BoldMT'" font-size="10.5253">r</tspan><tspan x="11.116" y="0" fill="#00CCCC" font-family="'Arial-BoldMT'" font-size="10.5253">i</tspan><tspan x="14.041" y="0" fill="#00CCCC" font-family="'Arial-BoldMT'" font-size="10.5253">s</tspan></text>
	<g>
		<circle fill="#00FF00" cx="476.049" cy="278.356" r="2.521"/>
	</g>
	<path fill="none" stroke="#808080" d="M528.56,303.632c0.045-0.146-30.859-9.777-69.032-21.515
		c-38.17-11.737-69.149-21.135-69.194-20.989c-0.04,0.131,25.198,8.01,58.233,18.189c3.518,1.084,7.125,2.194,10.799,3.324
		C497.535,294.379,528.515,303.776,528.56,303.632z"/>
	<path fill="none" stroke="#FFFFFF" d="M444.31,277.444c-30.858-9.46-53.938-16.441-53.977-16.316
		c-0.04,0.127,23.811,7.577,55.487,17.343"/>
	<path fill="none" stroke="#808080" d="M500.4,279.011c-0.003,0.141-14.415-0.088-34.837-0.532
		c-6.44-0.141-13.479-0.301-20.852-0.479c-30.751-0.743-55.676-1.495-55.671-1.681c0.002-0.142,14.563,0.089,35.154,0.538
		c6.354,0.139,13.281,0.297,20.533,0.473C475.479,278.073,500.405,278.826,500.4,279.011z"/>
	<circle fill="#D04040" cx="444.898" cy="277.575" r="2.522"/>
	<circle fill="#00FF00" cx="436.621" cy="277.025" r="2.521"/>
	<path fill="none" stroke="#FFFFFF" d="M432.859,274.47c4.132,1.277,8.468,2.616,12.961,4.001"/>
	<path fill="none" stroke="#FFFFFF" d="M465.563,278.479c-6.44-0.141-13.479-0.301-20.852-0.479
		c-30.751-0.743-55.676-1.495-55.671-1.681c0.002-0.142,14.563,0.089,35.154,0.538"/>
	<path fill="none" stroke="#808080" d="M444.553,278.08c1.324,0.409,2.662,0.821,4.014,1.237"/>
	<circle fill="#00FF00" cx="477.495" cy="278.452" r="2.521"/>
	<circle fill="#00FF00" cx="424.56" cy="271.326" r="2.522"/>
	<text transform="matrix(1 0 0 1 419.0742 266.7129)"><tspan x="0" y="0" fill="#00FF00" font-family="'Arial-BoldMT'" font-size="7.0169">P</tspan><tspan x="4.681" y="0" fill="#00FF00" font-family="'Arial-BoldMT'" font-size="7.0169">l</tspan><tspan x="6.63" y="0" fill="#00FF00" font-family="'Arial-BoldMT'" font-size="7.0169">u</tspan><tspan x="10.916" y="0" fill="#00FF00" font-family="'Arial-BoldMT'" font-size="7.0169">t</tspan><tspan x="13.253" y="0" fill="#00FF00" font-family="'Arial-BoldMT'" font-size="7.0169">o</tspan></text>
	<text transform="matrix(1 0 0 1 480.7646 286.0098)"><tspan x="0" y="0" fill="#00FF00" font-family="'Arial-BoldMT'" font-size="7.0169">N</tspan><tspan x="5.067" y="0" fill="#00FF00" font-family="'Arial-BoldMT'" font-size="7.0169">e</tspan><tspan x="8.97" y="0" fill="#00FF00" font-family="'Arial-BoldMT'" font-size="7.0169">p</tspan><tspan x="13.256" y="0" fill="#00FF00" font-family="'Arial-BoldMT'" font-size="7.0169">t</tspan><tspan x="15.593" y="0" fill="#00FF00" font-family="'Arial-BoldMT'" font-size="7.0169">u</tspan><tspan x="19.879" y="0" fill="#00FF00" font-family="'Arial-BoldMT'" font-size="7.0169">n</tspan><tspan x="24.165" y="0" fill="#00FF00" font-family="'Arial-BoldMT'" font-size="7.0169">e</tspan></text>
	<text transform="matrix(1 0 0 1 451.8193 274.3145)"><tspan x="0" y="0" fill="#00FF00" font-family="'Arial-BoldMT'" font-size="7.0169">U</tspan><tspan x="5.067" y="0" fill="#00FF00" font-family="'Arial-BoldMT'" font-size="7.0169">r</tspan><tspan x="7.798" y="0" fill="#00FF00" font-family="'Arial-BoldMT'" font-size="7.0169">a</tspan><tspan x="11.7" y="0" fill="#00FF00" font-family="'Arial-BoldMT'" font-size="7.0169">n</tspan><tspan x="15.986" y="0" fill="#00FF00" font-family="'Arial-BoldMT'" font-size="7.0169">u</tspan><tspan x="20.272" y="0" fill="#00FF00" font-family="'Arial-BoldMT'" font-size="7.0169">s</tspan></text>
	<text transform="matrix(1 0 0 1 417.4658 286.7402)"><tspan x="0" y="0" fill="#00FF00" font-family="'Arial-BoldMT'" font-size="7.0169">S</tspan><tspan x="4.681" y="0" fill="#00FF00" font-family="'Arial-BoldMT'" font-size="7.0169">a</tspan><tspan x="8.583" y="0" fill="#00FF00" font-family="'Arial-BoldMT'" font-size="7.0169">t</tspan><tspan x="10.92" y="0" fill="#00FF00" font-family="'Arial-BoldMT'" font-size="7.0169">u</tspan><tspan x="15.206" y="0" fill="#00FF00" font-family="'Arial-BoldMT'" font-size="7.0169">r</tspan><tspan x="17.937" y="0" fill="#00FF00" font-family="'Arial-BoldMT'" font-size="7.0169">n</tspan></text>
	<line fill="none" stroke="#808080" x1="353.004" y1="0" x2="353.004" y2="395.666"/>
	<line fill="none" stroke="#808080" x1="643.67" y1="191.833" x2="353.17" y2="191.833"/>
</g>
<line fill="none" stroke="#808080" x1="0" y1="395.332" x2="644" y2="395.332"/>
</svg>
