<?xml version="1.0" encoding="UTF-8" standalone="no"?>
<!-- Generator: Adobe Illustrator 13.0.0, SVG Export Plug-In . SVG Version: 6.00 Build 14948)  -->
<svg
   xmlns:dc="http://purl.org/dc/elements/1.1/"
   xmlns:cc="http://web.resource.org/cc/"
   xmlns:rdf="http://www.w3.org/1999/02/22-rdf-syntax-ns#"
   xmlns:svg="http://www.w3.org/2000/svg"
   xmlns="http://www.w3.org/2000/svg"
   xmlns:sodipodi="http://sodipodi.sourceforge.net/DTD/sodipodi-0.dtd"
   xmlns:inkscape="http://www.inkscape.org/namespaces/inkscape"
   version="1.0"
   id="Layer_1"
   x="0px"
   y="0px"
   width="480"
   height="427.164"
   viewBox="0 0 432.92 427.164"
   enable-background="new 0 0 432.92 427.164"
   xml:space="preserve"
   sodipodi:version="0.32"
   inkscape:version="0.45.1"
   sodipodi:docname="Haumea.svg"
   inkscape:output_extension="org.inkscape.output.svg.inkscape"
   sodipodi:docbase="C:\Documents and Settings\Jack Rabbit\Desktop"><metadata
   id="metadata167"><rdf:RDF><cc:Work
       rdf:about=""><dc:format>image/svg+xml</dc:format><dc:type
         rdf:resource="http://purl.org/dc/dcmitype/StillImage" /></cc:Work></rdf:RDF></metadata><defs
   id="defs165" /><sodipodi:namedview
   inkscape:window-height="719"
   inkscape:window-width="1024"
   inkscape:pageshadow="2"
   inkscape:pageopacity="0.0"
   guidetolerance="10.0"
   gridtolerance="10.0"
   objecttolerance="10.0"
   borderopacity="1.0"
   bordercolor="#666666"
   pagecolor="#ffffff"
   id="base"
   inkscape:zoom="0.89192909"
   inkscape:cx="216.46001"
   inkscape:cy="213.582"
   inkscape:window-x="0"
   inkscape:window-y="22"
   inkscape:current-layer="Layer_1"
   width="480px"
   height="427.164px" />
<g
   id="g3">
	<path
   d="M 98.651,15.305 C 98.588,15.977 98.508,16.565 98.411,17.069 C 98.314,17.573 98.233,17.938 98.171,18.165 L 88.058,18.165 L 88.058,17.66 C 88.589,17.551 89.005,17.431 89.306,17.303 C 89.607,17.175 89.757,17.055 89.757,16.946 L 89.757,4.629 C 89.757,4.535 89.614,4.418 89.329,4.277 C 89.044,4.136 88.62,4.011 88.058,3.902 L 88.058,3.398 L 97.503,3.398 L 97.89,3.691 C 97.874,3.894 97.851,4.117 97.82,4.359 C 97.789,4.601 97.75,4.843 97.703,5.086 C 97.656,5.329 97.607,5.559 97.557,5.777 C 97.507,5.995 97.457,6.179 97.411,6.328 L 96.884,6.328 C 96.868,5.969 96.835,5.668 96.784,5.426 C 96.733,5.184 96.669,4.99 96.591,4.846 C 96.513,4.702 96.415,4.6 96.302,4.541 C 96.189,4.482 96.062,4.453 95.921,4.453 L 91.632,4.453 L 91.632,9.551 L 96.378,9.551 L 96.683,9.879 C 96.62,9.988 96.544,10.106 96.454,10.231 C 96.364,10.356 96.27,10.479 96.173,10.6 C 96.076,10.721 95.978,10.832 95.88,10.934 C 95.782,11.036 95.691,11.118 95.605,11.18 C 95.488,11.063 95.361,10.965 95.224,10.887 C 95.087,10.809 94.931,10.742 94.755,10.688 C 94.579,10.634 94.372,10.594 94.134,10.571 C 93.896,10.548 93.613,10.536 93.284,10.536 L 91.632,10.536 L 91.632,16.36 C 91.632,16.477 91.659,16.581 91.714,16.671 C 91.769,16.761 91.882,16.839 92.054,16.905 C 92.226,16.971 92.468,17.022 92.781,17.057 C 93.094,17.092 93.508,17.11 94.023,17.11 L 95.535,17.11 C 95.894,17.11 96.201,17.09 96.455,17.051 C 96.709,17.012 96.934,16.924 97.129,16.787 C 97.324,16.65 97.502,16.449 97.662,16.183 C 97.822,15.917 97.984,15.554 98.148,15.093 L 98.651,15.305 z "
   id="path5" />
	<path
   d="M 100.081,18.164 L 100.081,17.66 C 100.417,17.605 100.698,17.549 100.925,17.49 C 101.152,17.431 101.331,17.373 101.464,17.314 C 101.597,17.255 101.693,17.195 101.751,17.132 C 101.809,17.069 101.839,17.007 101.839,16.944 L 101.839,2.977 C 101.839,2.625 101.816,2.352 101.769,2.157 C 101.722,1.962 101.636,1.815 101.511,1.718 C 101.386,1.621 101.218,1.554 101.007,1.519 C 100.796,1.484 100.527,1.447 100.198,1.408 L 100.198,0.938 C 100.761,0.829 101.276,0.708 101.745,0.575 C 102.214,0.442 102.69,0.25 103.175,0 L 103.597,0.398 L 103.597,16.945 C 103.597,17.062 103.73,17.183 103.995,17.308 C 104.26,17.433 104.714,17.55 105.354,17.66 L 105.354,18.164 L 100.081,18.164 z "
   id="path7" />
	<path
   d="M 106.585,18.164 L 106.585,17.66 C 106.921,17.605 107.202,17.549 107.429,17.49 C 107.656,17.431 107.835,17.373 107.968,17.314 C 108.101,17.255 108.197,17.195 108.255,17.132 C 108.313,17.069 108.343,17.007 108.343,16.944 L 108.343,2.977 C 108.343,2.625 108.32,2.352 108.273,2.157 C 108.226,1.962 108.14,1.815 108.015,1.718 C 107.89,1.621 107.722,1.554 107.511,1.519 C 107.3,1.484 107.031,1.447 106.702,1.408 L 106.702,0.938 C 107.265,0.829 107.78,0.708 108.249,0.575 C 108.718,0.442 109.194,0.251 109.679,0.001 L 110.101,0.399 L 110.101,16.946 C 110.101,17.063 110.234,17.184 110.499,17.309 C 110.764,17.434 111.218,17.551 111.858,17.661 L 111.858,18.165 L 106.585,18.165 L 106.585,18.164 z "
   id="path9" />
	<path
   d="M 113.206,18.164 L 113.206,17.66 C 113.737,17.551 114.144,17.431 114.425,17.303 C 114.706,17.175 114.847,17.055 114.847,16.946 L 114.847,10.313 C 114.847,9.915 114.839,9.592 114.824,9.346 C 114.809,9.1 114.75,8.908 114.648,8.772 C 114.546,8.636 114.384,8.536 114.162,8.473 C 113.94,8.41 113.621,8.36 113.207,8.321 L 113.207,7.852 C 113.449,7.805 113.705,7.748 113.975,7.682 C 114.245,7.616 114.512,7.541 114.778,7.459 C 115.044,7.377 115.298,7.289 115.54,7.195 C 115.782,7.101 116.005,7.007 116.208,6.914 L 116.606,6.914 L 116.606,16.945 C 116.606,17.039 116.737,17.154 116.999,17.291 C 117.261,17.428 117.677,17.551 118.247,17.66 L 118.247,18.164 L 113.206,18.164 z M 116.956,3.387 C 116.956,3.606 116.921,3.813 116.851,4.008 C 116.781,4.203 116.685,4.373 116.564,4.518 C 116.443,4.663 116.3,4.778 116.136,4.864 C 115.972,4.95 115.792,4.993 115.597,4.993 C 115.245,4.993 114.993,4.895 114.841,4.7 C 114.689,4.505 114.612,4.227 114.612,3.868 C 114.612,3.649 114.647,3.442 114.717,3.247 C 114.787,3.052 114.885,2.882 115.01,2.737 C 115.135,2.592 115.278,2.479 115.438,2.397 C 115.598,2.315 115.772,2.274 115.959,2.274 C 116.624,2.273 116.956,2.645 116.956,3.387 z "
   id="path11" />
	<path
   d="M 130.667,12.398 C 130.667,12.851 130.608,13.316 130.491,13.793 C 130.374,14.27 130.214,14.734 130.011,15.188 C 129.808,15.642 129.566,16.071 129.284,16.477 C 129.002,16.883 128.696,17.237 128.364,17.538 C 128.032,17.839 127.682,18.077 127.315,18.253 C 126.948,18.429 126.573,18.517 126.19,18.517 C 125.729,18.517 125.21,18.388 124.631,18.13 C 124.052,17.872 123.486,17.501 122.932,17.017 L 122.932,22.56 C 122.932,22.685 123.078,22.81 123.371,22.935 C 123.664,23.06 124.178,23.177 124.912,23.287 L 124.912,23.791 L 119.533,23.791 L 119.533,23.287 C 120.049,23.162 120.451,23.043 120.74,22.93 C 121.029,22.817 121.174,22.694 121.174,22.561 L 121.174,9.832 C 121.174,9.543 121.158,9.305 121.127,9.117 C 121.096,8.929 121.023,8.779 120.91,8.666 C 120.797,8.553 120.633,8.471 120.418,8.42 C 120.203,8.369 119.908,8.336 119.533,8.32 L 119.533,7.852 C 119.799,7.797 120.053,7.737 120.295,7.67 C 120.537,7.603 120.772,7.533 120.998,7.459 C 121.224,7.385 121.449,7.303 121.672,7.213 C 121.895,7.123 122.119,7.024 122.346,6.914 L 122.756,7.324 L 122.861,9.644 C 123.252,9.175 123.644,8.769 124.039,8.425 C 124.434,8.081 124.81,7.798 125.17,7.575 C 125.53,7.352 125.863,7.186 126.172,7.077 C 126.481,6.968 126.748,6.913 126.975,6.913 C 127.506,6.913 127.998,7.038 128.452,7.288 C 128.906,7.538 129.296,7.899 129.624,8.372 C 129.952,8.845 130.208,9.421 130.392,10.101 C 130.576,10.781 130.667,11.547 130.667,12.398 z M 129.085,13.172 C 129.085,12.492 129.005,11.859 128.845,11.274 C 128.685,10.689 128.472,10.18 128.206,9.751 C 127.94,9.322 127.632,8.985 127.28,8.743 C 126.928,8.501 126.565,8.38 126.19,8.38 C 126.049,8.38 125.866,8.423 125.639,8.509 C 125.412,8.595 125.155,8.739 124.866,8.943 C 124.577,9.147 124.268,9.418 123.94,9.757 C 123.612,10.096 123.276,10.517 122.932,11.017 L 122.932,15.669 C 123.284,15.935 123.61,16.153 123.911,16.325 C 124.212,16.497 124.493,16.632 124.755,16.729 C 125.017,16.826 125.265,16.895 125.499,16.934 C 125.733,16.973 125.956,16.993 126.167,16.993 C 126.589,16.993 126.978,16.911 127.333,16.747 C 127.688,16.583 127.995,16.341 128.253,16.02 C 128.511,15.699 128.714,15.301 128.862,14.825 C 129.01,14.349 129.085,13.797 129.085,13.172 z "
   id="path13" />
	<path
   d="M 139.808,14.848 C 139.808,15.403 139.73,15.877 139.574,16.272 C 139.418,16.667 139.215,17.001 138.965,17.274 C 138.715,17.547 138.438,17.766 138.133,17.93 C 137.828,18.094 137.528,18.219 137.231,18.305 C 136.934,18.391 136.655,18.448 136.393,18.475 C 136.131,18.502 135.926,18.516 135.778,18.516 C 135.403,18.516 134.952,18.446 134.424,18.305 C 133.896,18.164 133.371,17.95 132.848,17.66 C 132.793,17.637 132.756,17.51 132.737,17.279 C 132.718,17.048 132.714,16.783 132.725,16.482 C 132.736,16.181 132.76,15.878 132.795,15.574 C 132.83,15.27 132.875,15.027 132.93,14.847 L 133.434,14.976 C 133.45,15.304 133.536,15.613 133.692,15.902 C 133.848,16.191 134.057,16.441 134.319,16.652 C 134.581,16.863 134.885,17.031 135.233,17.156 C 135.581,17.281 135.958,17.344 136.364,17.344 C 136.645,17.344 136.903,17.299 137.137,17.209 C 137.371,17.119 137.575,16.994 137.746,16.834 C 137.917,16.674 138.051,16.48 138.144,16.254 C 138.237,16.028 138.285,15.777 138.285,15.504 C 138.285,15.191 138.201,14.914 138.033,14.672 C 137.865,14.43 137.644,14.209 137.371,14.01 C 137.098,13.811 136.787,13.623 136.439,13.447 C 136.091,13.271 135.738,13.09 135.378,12.902 C 135.05,12.738 134.733,12.562 134.429,12.375 C 134.125,12.188 133.853,11.977 133.615,11.742 C 133.377,11.507 133.185,11.246 133.041,10.957 C 132.897,10.668 132.824,10.336 132.824,9.961 C 132.824,9.477 132.922,9.045 133.117,8.666 C 133.312,8.287 133.572,7.969 133.896,7.711 C 134.22,7.453 134.591,7.256 135.009,7.119 C 135.427,6.982 135.859,6.914 136.304,6.914 C 136.546,6.914 136.814,6.935 137.107,6.978 C 137.4,7.021 137.689,7.082 137.974,7.16 C 138.259,7.238 138.527,7.332 138.777,7.441 C 139.027,7.55 139.23,7.675 139.386,7.816 C 139.433,7.863 139.439,7.968 139.404,8.132 C 139.369,8.296 139.314,8.476 139.24,8.671 C 139.166,8.866 139.086,9.05 139,9.222 C 138.914,9.394 138.848,9.511 138.801,9.574 L 138.344,9.48 C 137.969,8.917 137.58,8.525 137.178,8.302 C 136.776,8.079 136.383,7.968 136,7.968 C 135.742,7.968 135.512,8.011 135.309,8.097 C 135.106,8.183 134.932,8.294 134.788,8.431 C 134.644,8.568 134.534,8.718 134.46,8.882 C 134.386,9.046 134.349,9.21 134.349,9.374 C 134.349,9.624 134.423,9.849 134.572,10.048 C 134.721,10.247 134.916,10.435 135.158,10.611 C 135.4,10.787 135.676,10.955 135.984,11.115 C 136.292,11.275 136.611,11.441 136.939,11.613 C 137.275,11.785 137.615,11.968 137.959,12.164 C 138.303,12.36 138.611,12.584 138.885,12.838 C 139.159,13.092 139.381,13.381 139.553,13.705 C 139.725,14.029 139.808,14.41 139.808,14.848 z "
   id="path15" />
	<path
   d="M 152.007,12.48 C 152.007,13.003 151.941,13.515 151.808,14.015 C 151.675,14.515 151.492,14.988 151.257,15.433 C 151.022,15.878 150.741,16.29 150.413,16.669 C 150.085,17.048 149.724,17.374 149.329,17.648 C 148.934,17.922 148.515,18.134 148.069,18.287 C 147.623,18.44 147.163,18.516 146.686,18.516 C 145.944,18.516 145.274,18.375 144.676,18.094 C 144.078,17.813 143.567,17.426 143.141,16.934 C 142.715,16.442 142.387,15.856 142.157,15.176 C 141.927,14.496 141.811,13.758 141.811,12.961 C 141.811,12.445 141.875,11.938 142.004,11.438 C 142.133,10.938 142.313,10.463 142.543,10.014 C 142.773,9.565 143.051,9.151 143.375,8.772 C 143.699,8.393 144.059,8.067 144.453,7.793 C 144.847,7.519 145.273,7.305 145.73,7.148 C 146.187,6.991 146.658,6.914 147.142,6.914 C 147.876,6.914 148.542,7.055 149.14,7.336 C 149.738,7.617 150.249,8.006 150.675,8.502 C 151.101,8.998 151.429,9.586 151.659,10.266 C 151.889,10.946 152.007,11.684 152.007,12.48 z M 150.19,12.832 C 150.19,12.215 150.088,11.627 149.885,11.068 C 149.682,10.509 149.42,10.017 149.1,9.591 C 148.78,9.165 148.416,8.827 148.01,8.577 C 147.604,8.327 147.201,8.202 146.803,8.202 C 146.209,8.202 145.709,8.315 145.303,8.542 C 144.897,8.769 144.571,9.079 144.324,9.474 C 144.077,9.869 143.9,10.335 143.791,10.874 C 143.682,11.413 143.627,11.995 143.627,12.62 C 143.627,13.237 143.736,13.825 143.955,14.384 C 144.174,14.943 144.449,15.433 144.781,15.855 C 145.113,16.277 145.478,16.611 145.877,16.857 C 146.276,17.103 146.654,17.226 147.014,17.226 C 147.569,17.226 148.045,17.122 148.444,16.915 C 148.843,16.708 149.171,16.413 149.428,16.03 C 149.685,15.647 149.877,15.186 150.002,14.647 C 150.127,14.108 150.19,13.504 150.19,12.832 z "
   id="path17" />
	<path
   d="M 153.765,18.164 L 153.765,17.66 C 154.296,17.551 154.703,17.431 154.984,17.303 C 155.265,17.175 155.406,17.055 155.406,16.946 L 155.406,10.313 C 155.406,9.915 155.398,9.592 155.383,9.346 C 155.368,9.1 155.309,8.908 155.207,8.772 C 155.105,8.636 154.943,8.536 154.721,8.473 C 154.499,8.41 154.18,8.36 153.766,8.321 L 153.766,7.852 C 154.008,7.805 154.264,7.748 154.534,7.682 C 154.804,7.616 155.071,7.541 155.337,7.459 C 155.603,7.377 155.857,7.289 156.099,7.195 C 156.341,7.101 156.564,7.007 156.767,6.914 L 157.165,6.914 L 157.165,16.945 C 157.165,17.039 157.296,17.154 157.558,17.291 C 157.82,17.428 158.236,17.551 158.806,17.66 L 158.806,18.164 L 153.765,18.164 z M 157.515,3.387 C 157.515,3.606 157.48,3.813 157.41,4.008 C 157.34,4.203 157.244,4.373 157.123,4.518 C 157.002,4.663 156.859,4.778 156.695,4.864 C 156.531,4.95 156.351,4.993 156.156,4.993 C 155.804,4.993 155.552,4.895 155.4,4.7 C 155.248,4.505 155.171,4.227 155.171,3.868 C 155.171,3.649 155.206,3.442 155.276,3.247 C 155.346,3.052 155.444,2.882 155.569,2.737 C 155.694,2.592 155.837,2.479 155.997,2.397 C 156.157,2.315 156.331,2.274 156.518,2.274 C 157.183,2.273 157.515,2.645 157.515,3.387 z "
   id="path19" />
	<path
   d="M 171.765,17.18 C 171.406,17.422 171.087,17.627 170.81,17.795 C 170.533,17.963 170.29,18.1 170.083,18.205 C 169.876,18.31 169.698,18.389 169.55,18.439 C 169.402,18.489 169.273,18.515 169.163,18.515 C 168.905,18.515 168.694,18.339 168.53,17.988 C 168.366,17.637 168.257,17.035 168.202,16.183 C 167.905,16.542 167.61,16.867 167.317,17.156 C 167.024,17.445 166.723,17.689 166.415,17.888 C 166.107,18.087 165.78,18.242 165.436,18.351 C 165.092,18.46 164.721,18.515 164.323,18.515 C 163.885,18.515 163.436,18.388 162.975,18.134 C 162.514,17.88 162.09,17.515 161.704,17.038 C 161.318,16.561 161.001,15.979 160.755,15.292 C 160.509,14.605 160.386,13.827 160.386,12.96 C 160.386,12.515 160.447,12.054 160.568,11.577 C 160.689,11.1 160.863,10.639 161.089,10.194 C 161.315,9.749 161.593,9.327 161.921,8.928 C 162.249,8.529 162.616,8.18 163.023,7.879 C 163.43,7.578 163.875,7.342 164.359,7.17 C 164.843,6.998 165.359,6.912 165.906,6.912 C 166.273,6.912 166.638,6.957 167.002,7.047 C 167.366,7.137 167.758,7.338 168.18,7.651 L 168.18,3.234 C 168.18,2.804 168.168,2.463 168.145,2.209 C 168.122,1.955 168.055,1.76 167.946,1.623 C 167.837,1.486 167.669,1.393 167.442,1.342 C 167.215,1.291 166.895,1.25 166.481,1.219 L 166.481,0.762 C 167.122,0.676 167.696,0.561 168.204,0.416 C 168.712,0.271 169.169,0.133 169.575,-5.5511151e-017 L 169.938,0.352 L 169.938,15.188 C 169.938,15.461 169.944,15.696 169.956,15.891 C 169.968,16.086 169.985,16.25 170.009,16.383 C 170.033,16.516 170.06,16.625 170.091,16.711 C 170.122,16.797 170.161,16.867 170.208,16.922 C 170.278,17.008 170.413,17.033 170.612,16.998 C 170.811,16.963 171.145,16.855 171.614,16.676 L 171.765,17.18 z M 168.179,15.105 L 168.179,9.609 C 167.921,9.164 167.558,8.818 167.089,8.572 C 166.62,8.326 166.105,8.203 165.542,8.203 C 165.042,8.203 164.585,8.295 164.171,8.478 C 163.757,8.661 163.4,8.937 163.099,9.304 C 162.798,9.671 162.564,10.128 162.396,10.675 C 162.228,11.222 162.144,11.863 162.144,12.597 C 162.144,13.261 162.24,13.865 162.431,14.408 C 162.622,14.951 162.867,15.414 163.163,15.797 C 163.459,16.18 163.786,16.475 164.142,16.682 C 164.498,16.889 164.835,16.993 165.156,16.993 C 165.422,16.993 165.683,16.938 165.941,16.829 C 166.199,16.72 166.453,16.577 166.703,16.401 C 166.953,16.225 167.201,16.024 167.447,15.797 C 167.693,15.57 167.937,15.34 168.179,15.105 z "
   id="path21" />
	<path
   d="M 185.417,14.848 C 185.417,15.403 185.339,15.877 185.183,16.272 C 185.027,16.667 184.824,17.001 184.574,17.274 C 184.324,17.547 184.047,17.766 183.742,17.93 C 183.437,18.094 183.137,18.219 182.84,18.305 C 182.543,18.391 182.264,18.448 182.002,18.475 C 181.74,18.502 181.535,18.516 181.387,18.516 C 181.012,18.516 180.561,18.446 180.033,18.305 C 179.505,18.164 178.98,17.95 178.457,17.66 C 178.402,17.637 178.365,17.51 178.346,17.279 C 178.327,17.048 178.323,16.783 178.334,16.482 C 178.345,16.181 178.369,15.878 178.404,15.574 C 178.439,15.27 178.484,15.027 178.539,14.847 L 179.043,14.976 C 179.059,15.304 179.145,15.613 179.301,15.902 C 179.457,16.191 179.666,16.441 179.928,16.652 C 180.19,16.863 180.494,17.031 180.842,17.156 C 181.19,17.281 181.567,17.344 181.973,17.344 C 182.254,17.344 182.512,17.299 182.746,17.209 C 182.98,17.119 183.184,16.994 183.355,16.834 C 183.526,16.674 183.66,16.48 183.753,16.254 C 183.846,16.028 183.894,15.777 183.894,15.504 C 183.894,15.191 183.81,14.914 183.642,14.672 C 183.474,14.43 183.253,14.209 182.98,14.01 C 182.707,13.811 182.396,13.623 182.048,13.447 C 181.7,13.271 181.347,13.09 180.987,12.902 C 180.659,12.738 180.342,12.562 180.038,12.375 C 179.734,12.188 179.462,11.977 179.224,11.742 C 178.986,11.507 178.794,11.246 178.65,10.957 C 178.506,10.668 178.433,10.336 178.433,9.961 C 178.433,9.477 178.531,9.045 178.726,8.666 C 178.921,8.287 179.181,7.969 179.505,7.711 C 179.829,7.453 180.2,7.256 180.618,7.119 C 181.036,6.982 181.468,6.914 181.913,6.914 C 182.155,6.914 182.423,6.935 182.716,6.978 C 183.009,7.021 183.298,7.082 183.583,7.16 C 183.868,7.238 184.136,7.332 184.386,7.441 C 184.636,7.55 184.839,7.675 184.995,7.816 C 185.042,7.863 185.048,7.968 185.013,8.132 C 184.978,8.296 184.923,8.476 184.849,8.671 C 184.775,8.866 184.695,9.05 184.609,9.222 C 184.523,9.394 184.457,9.511 184.41,9.574 L 183.953,9.48 C 183.578,8.917 183.189,8.525 182.787,8.302 C 182.385,8.079 181.992,7.968 181.609,7.968 C 181.351,7.968 181.121,8.011 180.918,8.097 C 180.715,8.183 180.541,8.294 180.397,8.431 C 180.253,8.568 180.143,8.718 180.069,8.882 C 179.995,9.046 179.958,9.21 179.958,9.374 C 179.958,9.624 180.032,9.849 180.181,10.048 C 180.33,10.247 180.525,10.435 180.767,10.611 C 181.009,10.787 181.285,10.955 181.593,11.115 C 181.901,11.275 182.22,11.441 182.548,11.613 C 182.884,11.785 183.224,11.968 183.568,12.164 C 183.912,12.36 184.22,12.584 184.494,12.838 C 184.768,13.092 184.99,13.381 185.162,13.705 C 185.334,14.029 185.417,14.41 185.417,14.848 z "
   id="path23" />
	<path
   d="M 194.334,18.164 L 194.334,17.66 C 194.897,17.512 195.311,17.383 195.576,17.273 C 195.841,17.163 195.974,17.054 195.974,16.945 L 195.974,10.746 C 195.974,10.269 195.945,9.883 195.886,9.586 C 195.827,9.289 195.736,9.055 195.611,8.883 C 195.486,8.711 195.33,8.594 195.142,8.531 C 194.954,8.468 194.732,8.437 194.474,8.437 C 194.201,8.437 193.906,8.507 193.59,8.648 C 193.274,8.789 192.944,8.996 192.6,9.269 C 192.256,9.542 191.909,9.884 191.557,10.294 C 191.205,10.704 190.862,11.183 190.526,11.73 L 190.526,16.945 C 190.526,17.062 190.672,17.183 190.965,17.308 C 191.258,17.433 191.658,17.55 192.166,17.66 L 192.166,18.164 L 187.127,18.164 L 187.127,17.66 C 187.643,17.527 188.045,17.408 188.334,17.303 C 188.623,17.198 188.768,17.078 188.768,16.946 L 188.768,2.953 C 188.768,2.625 188.754,2.369 188.727,2.185 C 188.7,2.001 188.629,1.859 188.516,1.757 C 188.403,1.655 188.237,1.583 188.018,1.54 C 187.799,1.497 187.502,1.452 187.127,1.405 L 187.127,0.938 C 187.455,0.875 187.754,0.813 188.023,0.75 C 188.292,0.687 188.543,0.619 188.773,0.545 C 189.003,0.471 189.224,0.391 189.435,0.305 C 189.646,0.219 189.865,0.117 190.091,-5.5511151e-017 L 190.525,0.398 L 190.525,10.148 C 190.861,9.648 191.234,9.199 191.644,8.8 C 192.054,8.401 192.466,8.062 192.88,7.78 C 193.294,7.498 193.698,7.284 194.093,7.135 C 194.487,6.987 194.837,6.912 195.141,6.912 C 195.477,6.912 195.801,6.963 196.114,7.064 C 196.427,7.165 196.702,7.322 196.94,7.533 C 197.178,7.744 197.37,8.012 197.514,8.336 C 197.658,8.66 197.731,9.041 197.731,9.479 L 197.731,16.944 C 197.731,17.053 197.85,17.161 198.088,17.266 C 198.326,17.371 198.754,17.502 199.371,17.659 L 199.371,18.163 L 194.334,18.163 L 194.334,18.164 z "
   id="path25" />
	<path
   d="M 210.577,17.203 C 209.913,17.664 209.364,17.998 208.931,18.205 C 208.498,18.412 208.171,18.516 207.952,18.516 C 207.694,18.516 207.479,18.336 207.307,17.977 C 207.135,17.618 207.041,17.122 207.026,16.489 C 206.674,16.841 206.323,17.145 205.971,17.403 C 205.619,17.661 205.276,17.872 204.94,18.036 C 204.604,18.2 204.286,18.321 203.985,18.399 C 203.684,18.477 203.409,18.516 203.159,18.516 C 202.878,18.516 202.589,18.469 202.292,18.375 C 201.995,18.281 201.728,18.133 201.489,17.93 C 201.25,17.727 201.053,17.465 200.897,17.145 C 200.741,16.825 200.663,16.438 200.663,15.985 C 200.663,15.391 200.767,14.895 200.974,14.497 C 201.181,14.099 201.429,13.755 201.718,13.466 C 201.906,13.278 202.118,13.101 202.357,12.933 C 202.596,12.765 202.912,12.603 203.306,12.447 C 203.7,12.291 204.195,12.142 204.788,12.002 C 205.381,11.862 206.128,11.725 207.026,11.592 L 207.026,9.938 C 207.026,9.672 206.995,9.424 206.932,9.194 C 206.869,8.964 206.764,8.764 206.616,8.596 C 206.468,8.428 206.266,8.299 206.012,8.209 C 205.758,8.119 205.44,8.078 205.057,8.086 C 204.807,8.094 204.561,8.137 204.319,8.215 C 204.077,8.293 203.866,8.403 203.686,8.543 C 203.506,8.683 203.366,8.85 203.264,9.041 C 203.162,9.232 203.123,9.445 203.147,9.68 C 203.155,9.75 203.075,9.83 202.907,9.92 C 202.739,10.01 202.54,10.09 202.309,10.16 C 202.078,10.23 201.852,10.285 201.629,10.324 C 201.406,10.363 201.248,10.371 201.154,10.347 L 200.99,9.89 C 201.17,9.499 201.443,9.124 201.81,8.765 C 202.177,8.406 202.597,8.089 203.07,7.816 C 203.543,7.543 204.043,7.324 204.57,7.16 C 205.097,6.996 205.607,6.914 206.099,6.914 C 206.958,6.914 207.62,7.139 208.085,7.588 C 208.55,8.037 208.782,8.664 208.782,9.469 L 208.782,16.078 C 208.782,16.406 208.825,16.641 208.911,16.781 C 208.997,16.921 209.11,16.992 209.251,16.992 C 209.36,16.992 209.501,16.972 209.673,16.933 C 209.845,16.894 210.087,16.808 210.4,16.675 L 210.577,17.203 z M 203.85,16.992 C 204.319,16.992 204.817,16.873 205.344,16.635 C 205.871,16.397 206.432,16.02 207.026,15.504 L 207.026,12.469 C 206.37,12.578 205.829,12.684 205.403,12.785 C 204.977,12.886 204.628,12.99 204.354,13.096 C 204.08,13.202 203.862,13.313 203.698,13.43 C 203.534,13.547 203.389,13.672 203.264,13.805 C 203.061,14.016 202.897,14.256 202.772,14.526 C 202.647,14.796 202.584,15.114 202.584,15.481 C 202.584,15.794 202.631,16.047 202.725,16.243 C 202.819,16.439 202.932,16.593 203.065,16.706 C 203.198,16.819 203.336,16.895 203.481,16.935 C 203.626,16.975 203.749,16.992 203.85,16.992 z "
   id="path27" />
	<path
   d="M 222.518,12.398 C 222.518,12.851 222.459,13.316 222.342,13.793 C 222.225,14.27 222.065,14.734 221.862,15.188 C 221.659,15.642 221.417,16.071 221.135,16.477 C 220.853,16.883 220.547,17.237 220.215,17.538 C 219.883,17.839 219.533,18.077 219.166,18.253 C 218.799,18.429 218.424,18.517 218.041,18.517 C 217.58,18.517 217.061,18.388 216.482,18.13 C 215.903,17.872 215.337,17.501 214.783,17.017 L 214.783,22.56 C 214.783,22.685 214.929,22.81 215.222,22.935 C 215.515,23.06 216.029,23.177 216.763,23.287 L 216.763,23.791 L 211.384,23.791 L 211.384,23.287 C 211.9,23.162 212.302,23.043 212.591,22.93 C 212.88,22.817 213.025,22.694 213.025,22.561 L 213.025,9.832 C 213.025,9.543 213.009,9.305 212.978,9.117 C 212.947,8.929 212.874,8.779 212.761,8.666 C 212.648,8.553 212.484,8.471 212.269,8.42 C 212.054,8.369 211.759,8.336 211.384,8.32 L 211.384,7.852 C 211.65,7.797 211.904,7.737 212.146,7.67 C 212.388,7.603 212.623,7.533 212.849,7.459 C 213.075,7.385 213.3,7.303 213.523,7.213 C 213.746,7.123 213.97,7.024 214.197,6.914 L 214.607,7.324 L 214.712,9.644 C 215.103,9.175 215.495,8.769 215.89,8.425 C 216.285,8.081 216.661,7.798 217.021,7.575 C 217.381,7.352 217.714,7.186 218.023,7.077 C 218.332,6.968 218.599,6.913 218.826,6.913 C 219.357,6.913 219.849,7.038 220.303,7.288 C 220.757,7.538 221.147,7.899 221.475,8.372 C 221.803,8.845 222.059,9.421 222.243,10.101 C 222.427,10.781 222.518,11.547 222.518,12.398 z M 220.936,13.172 C 220.936,12.492 220.856,11.859 220.696,11.274 C 220.536,10.689 220.323,10.18 220.057,9.751 C 219.791,9.322 219.483,8.985 219.131,8.743 C 218.779,8.501 218.416,8.38 218.041,8.38 C 217.9,8.38 217.717,8.423 217.49,8.509 C 217.263,8.595 217.006,8.739 216.717,8.943 C 216.428,9.147 216.119,9.418 215.791,9.757 C 215.463,10.096 215.127,10.517 214.783,11.017 L 214.783,15.669 C 215.135,15.935 215.461,16.153 215.762,16.325 C 216.063,16.497 216.344,16.632 216.606,16.729 C 216.868,16.826 217.116,16.895 217.35,16.934 C 217.584,16.973 217.807,16.993 218.018,16.993 C 218.44,16.993 218.829,16.911 219.184,16.747 C 219.539,16.583 219.846,16.341 220.104,16.02 C 220.362,15.699 220.565,15.301 220.713,14.825 C 220.861,14.349 220.936,13.797 220.936,13.172 z "
   id="path29" />
	<path
   d="M 233.604,11.637 C 233.463,11.793 233.276,11.938 233.041,12.071 C 232.806,12.204 232.564,12.321 232.314,12.423 L 226.15,12.423 C 226.158,13.032 226.242,13.612 226.402,14.163 C 226.562,14.714 226.793,15.198 227.093,15.616 C 227.393,16.034 227.757,16.368 228.183,16.618 C 228.609,16.868 229.087,16.993 229.619,16.993 C 229.861,16.993 230.098,16.977 230.328,16.946 C 230.558,16.915 230.807,16.844 231.072,16.735 C 231.337,16.626 231.633,16.465 231.957,16.255 C 232.281,16.045 232.662,15.759 233.1,15.4 C 233.202,15.455 233.289,15.533 233.364,15.634 C 233.439,15.735 233.495,15.818 233.534,15.88 C 233.011,16.45 232.552,16.909 232.157,17.257 C 231.762,17.605 231.391,17.872 231.044,18.06 C 230.697,18.248 230.353,18.371 230.013,18.429 C 229.673,18.487 229.304,18.517 228.906,18.517 C 228.304,18.517 227.732,18.388 227.189,18.13 C 226.646,17.872 226.168,17.507 225.753,17.034 C 225.338,16.561 225.009,15.991 224.763,15.323 C 224.517,14.655 224.394,13.907 224.394,13.079 C 224.394,12.556 224.453,12.04 224.57,11.532 C 224.687,11.024 224.857,10.544 225.08,10.091 C 225.303,9.638 225.574,9.22 225.894,8.837 C 226.214,8.454 226.578,8.122 226.984,7.841 C 227.156,7.724 227.349,7.609 227.564,7.495 C 227.779,7.381 228.003,7.282 228.238,7.196 C 228.473,7.11 228.705,7.042 228.935,6.991 C 229.165,6.94 229.386,6.915 229.597,6.915 C 230.105,6.915 230.558,6.985 230.956,7.126 C 231.354,7.267 231.702,7.456 231.999,7.694 C 232.296,7.932 232.546,8.21 232.749,8.526 C 232.952,8.842 233.118,9.176 233.247,9.528 C 233.376,9.88 233.468,10.237 233.522,10.6 C 233.576,10.963 233.604,11.309 233.604,11.637 z M 229.268,8.145 C 228.862,8.145 228.489,8.223 228.149,8.379 C 227.809,8.535 227.508,8.756 227.247,9.041 C 226.986,9.326 226.767,9.666 226.591,10.061 C 226.415,10.456 226.292,10.891 226.222,11.368 L 231.238,11.368 C 231.418,11.368 231.537,11.339 231.595,11.28 C 231.653,11.221 231.683,11.11 231.683,10.946 C 231.683,10.735 231.654,10.471 231.595,10.155 C 231.536,9.839 231.419,9.53 231.243,9.229 C 231.067,8.928 230.821,8.672 230.505,8.461 C 230.189,8.25 229.776,8.145 229.268,8.145 z "
   id="path31" />
	<path
   d="M 250.959,12.48 C 250.959,13.003 250.893,13.515 250.76,14.015 C 250.627,14.515 250.444,14.988 250.209,15.433 C 249.974,15.878 249.693,16.29 249.365,16.669 C 249.037,17.048 248.676,17.374 248.281,17.648 C 247.886,17.922 247.467,18.134 247.021,18.287 C 246.575,18.44 246.115,18.516 245.638,18.516 C 244.896,18.516 244.226,18.375 243.628,18.094 C 243.03,17.813 242.519,17.426 242.093,16.934 C 241.667,16.442 241.339,15.856 241.109,15.176 C 240.879,14.496 240.763,13.758 240.763,12.961 C 240.763,12.445 240.827,11.938 240.956,11.438 C 241.085,10.938 241.265,10.463 241.495,10.014 C 241.725,9.565 242.003,9.151 242.327,8.772 C 242.651,8.393 243.011,8.067 243.405,7.793 C 243.799,7.519 244.225,7.305 244.682,7.148 C 245.139,6.991 245.61,6.914 246.094,6.914 C 246.828,6.914 247.494,7.055 248.092,7.336 C 248.69,7.617 249.201,8.006 249.627,8.502 C 250.053,8.998 250.381,9.586 250.611,10.266 C 250.841,10.946 250.959,11.684 250.959,12.48 z M 249.143,12.832 C 249.143,12.215 249.041,11.627 248.838,11.068 C 248.635,10.509 248.373,10.017 248.053,9.591 C 247.733,9.165 247.369,8.827 246.963,8.577 C 246.557,8.327 246.154,8.202 245.756,8.202 C 245.162,8.202 244.662,8.315 244.256,8.542 C 243.85,8.769 243.524,9.079 243.277,9.474 C 243.03,9.869 242.853,10.335 242.744,10.874 C 242.635,11.413 242.58,11.995 242.58,12.62 C 242.58,13.237 242.689,13.825 242.908,14.384 C 243.127,14.943 243.402,15.433 243.734,15.855 C 244.066,16.277 244.431,16.611 244.83,16.857 C 245.229,17.103 245.607,17.226 245.967,17.226 C 246.522,17.226 246.998,17.122 247.397,16.915 C 247.796,16.708 248.124,16.413 248.381,16.03 C 248.638,15.647 248.83,15.186 248.955,14.647 C 249.08,14.108 249.143,13.504 249.143,12.832 z "
   id="path33" />
	<path
   d="M 261.471,1.125 C 261.471,1.188 261.414,1.281 261.301,1.406 C 261.188,1.531 261.053,1.66 260.897,1.793 C 260.741,1.926 260.579,2.051 260.411,2.168 C 260.243,2.285 260.1,2.371 259.983,2.426 C 259.795,2.262 259.606,2.119 259.415,1.998 C 259.224,1.877 259.04,1.777 258.864,1.699 C 258.688,1.621 258.524,1.562 258.372,1.523 C 258.22,1.484 258.093,1.464 257.991,1.464 C 257.788,1.464 257.571,1.532 257.341,1.669 C 257.111,1.806 256.896,2.054 256.696,2.413 C 256.496,2.772 256.331,3.261 256.198,3.878 C 256.065,4.495 255.999,5.288 255.999,6.257 L 255.999,7.265 L 259.022,7.265 L 259.362,7.605 C 259.292,7.714 259.204,7.832 259.098,7.957 C 258.992,8.082 258.887,8.199 258.782,8.309 C 258.677,8.419 258.573,8.518 258.471,8.608 C 258.369,8.698 258.283,8.758 258.213,8.79 C 258.033,8.696 257.775,8.604 257.44,8.515 C 257.105,8.426 256.624,8.38 255.999,8.38 L 255.999,16.97 C 255.999,17.017 256.04,17.064 256.122,17.111 C 256.204,17.158 256.343,17.207 256.538,17.257 C 256.733,17.307 256.985,17.366 257.294,17.433 C 257.603,17.5 257.987,17.576 258.448,17.662 L 258.448,18.166 L 252.6,18.166 L 252.6,17.66 C 253.139,17.566 253.547,17.451 253.825,17.314 C 254.103,17.177 254.241,17.062 254.241,16.968 L 254.241,8.378 L 252.671,8.378 L 252.425,8.05 L 253.339,7.265 L 254.241,7.265 L 254.241,6.902 C 254.241,5.98 254.304,5.205 254.429,4.576 C 254.554,3.947 254.724,3.416 254.939,2.982 C 255.154,2.548 255.402,2.185 255.683,1.892 C 255.964,1.599 256.261,1.328 256.574,1.078 C 256.785,0.906 257.015,0.754 257.265,0.621 C 257.515,0.488 257.763,0.375 258.009,0.281 C 258.255,0.187 258.489,0.117 258.712,0.07 C 258.935,0.023 259.12,0 259.268,0 C 259.51,0 259.76,0.047 260.018,0.141 C 260.276,0.235 260.512,0.342 260.727,0.463 C 260.942,0.584 261.12,0.707 261.26,0.832 C 261.4,0.957 261.471,1.055 261.471,1.125 z "
   id="path35" />
	<path
   d="M 265.233,18.164 L 265.233,17.66 C 265.764,17.551 266.18,17.431 266.481,17.303 C 266.782,17.175 266.932,17.055 266.932,16.946 L 266.932,4.629 C 266.932,4.535 266.789,4.418 266.504,4.277 C 266.219,4.136 265.795,4.011 265.233,3.902 L 265.233,3.398 L 270.506,3.398 L 270.506,3.902 C 269.975,4.011 269.559,4.132 269.258,4.265 C 268.957,4.398 268.807,4.519 268.807,4.628 L 268.807,9.901 L 275.955,9.901 L 275.955,4.629 C 275.955,4.535 275.812,4.418 275.527,4.277 C 275.242,4.136 274.818,4.011 274.256,3.902 L 274.256,3.398 L 279.529,3.398 L 279.529,3.902 C 278.998,4.011 278.582,4.132 278.281,4.265 C 277.98,4.398 277.83,4.519 277.83,4.628 L 277.83,16.944 C 277.83,17.038 277.973,17.153 278.258,17.29 C 278.543,17.427 278.967,17.55 279.529,17.659 L 279.529,18.163 L 274.256,18.163 L 274.256,17.66 C 274.787,17.551 275.203,17.431 275.504,17.303 C 275.805,17.175 275.955,17.055 275.955,16.946 L 275.955,10.958 L 268.807,10.958 L 268.807,16.946 C 268.807,17.04 268.948,17.155 269.229,17.292 C 269.51,17.429 269.936,17.552 270.506,17.661 L 270.506,18.165 L 265.233,18.165 L 265.233,18.164 z "
   id="path37" />
	<path
   d="M 291.19,17.203 C 290.526,17.664 289.977,17.998 289.544,18.205 C 289.111,18.412 288.784,18.516 288.565,18.516 C 288.307,18.516 288.092,18.336 287.92,17.977 C 287.748,17.618 287.654,17.122 287.639,16.489 C 287.287,16.841 286.936,17.145 286.584,17.403 C 286.232,17.661 285.889,17.872 285.553,18.036 C 285.217,18.2 284.899,18.321 284.598,18.399 C 284.297,18.477 284.022,18.516 283.772,18.516 C 283.491,18.516 283.202,18.469 282.905,18.375 C 282.608,18.281 282.341,18.133 282.102,17.93 C 281.863,17.727 281.666,17.465 281.51,17.145 C 281.354,16.825 281.276,16.438 281.276,15.985 C 281.276,15.391 281.38,14.895 281.587,14.497 C 281.794,14.099 282.042,13.755 282.331,13.466 C 282.519,13.278 282.731,13.101 282.97,12.933 C 283.209,12.765 283.525,12.603 283.919,12.447 C 284.313,12.291 284.808,12.142 285.401,12.002 C 285.994,11.862 286.741,11.725 287.639,11.592 L 287.639,9.938 C 287.639,9.672 287.608,9.424 287.545,9.194 C 287.482,8.964 287.377,8.764 287.229,8.596 C 287.081,8.428 286.879,8.299 286.625,8.209 C 286.371,8.119 286.053,8.078 285.67,8.086 C 285.42,8.094 285.174,8.137 284.932,8.215 C 284.69,8.293 284.479,8.403 284.299,8.543 C 284.119,8.683 283.979,8.85 283.877,9.041 C 283.775,9.232 283.736,9.445 283.76,9.68 C 283.768,9.75 283.688,9.83 283.52,9.92 C 283.352,10.01 283.153,10.09 282.922,10.16 C 282.691,10.23 282.465,10.285 282.242,10.324 C 282.019,10.363 281.861,10.371 281.767,10.347 L 281.603,9.89 C 281.783,9.499 282.056,9.124 282.423,8.765 C 282.79,8.406 283.21,8.089 283.683,7.816 C 284.156,7.543 284.656,7.324 285.183,7.16 C 285.71,6.996 286.22,6.914 286.712,6.914 C 287.571,6.914 288.233,7.139 288.698,7.588 C 289.163,8.037 289.395,8.664 289.395,9.469 L 289.395,16.078 C 289.395,16.406 289.438,16.641 289.524,16.781 C 289.61,16.921 289.723,16.992 289.864,16.992 C 289.973,16.992 290.114,16.972 290.286,16.933 C 290.458,16.894 290.7,16.808 291.013,16.675 L 291.19,17.203 z M 284.463,16.992 C 284.932,16.992 285.43,16.873 285.957,16.635 C 286.484,16.397 287.045,16.02 287.639,15.504 L 287.639,12.469 C 286.983,12.578 286.442,12.684 286.016,12.785 C 285.59,12.886 285.241,12.99 284.967,13.096 C 284.693,13.202 284.475,13.313 284.311,13.43 C 284.147,13.547 284.002,13.672 283.877,13.805 C 283.674,14.016 283.51,14.256 283.385,14.526 C 283.26,14.796 283.197,15.114 283.197,15.481 C 283.197,15.794 283.244,16.047 283.338,16.243 C 283.432,16.439 283.545,16.593 283.678,16.706 C 283.811,16.819 283.949,16.895 284.094,16.935 C 284.239,16.975 284.362,16.992 284.463,16.992 z "
   id="path39" />
	<path
   d="M 303.881,17.203 C 303.592,17.391 303.315,17.564 303.049,17.724 C 302.783,17.884 302.537,18.023 302.311,18.14 C 302.085,18.257 301.885,18.349 301.713,18.415 C 301.541,18.481 301.408,18.515 301.315,18.515 C 301.042,18.515 300.819,18.333 300.647,17.97 C 300.475,17.607 300.366,17.023 300.319,16.218 C 299.835,16.702 299.391,17.095 298.989,17.396 C 298.587,17.697 298.216,17.929 297.876,18.093 C 297.536,18.257 297.224,18.368 296.938,18.427 C 296.652,18.486 296.385,18.515 296.135,18.515 C 295.768,18.515 295.416,18.464 295.08,18.363 C 294.744,18.262 294.447,18.076 294.189,17.806 C 293.931,17.536 293.726,17.167 293.574,16.699 C 293.422,16.231 293.345,15.629 293.345,14.894 L 293.345,9.832 C 293.345,9.457 293.333,9.166 293.31,8.959 C 293.287,8.752 293.226,8.596 293.128,8.49 C 293.03,8.384 292.88,8.312 292.677,8.273 C 292.474,8.234 292.193,8.195 291.833,8.156 L 291.833,7.688 C 292.114,7.657 292.378,7.618 292.624,7.571 C 292.87,7.524 293.108,7.469 293.339,7.407 C 293.57,7.345 293.802,7.272 294.036,7.19 C 294.27,7.108 294.516,7.016 294.774,6.915 L 295.102,7.372 L 295.102,14.251 C 295.102,14.798 295.143,15.255 295.225,15.622 C 295.307,15.989 295.424,16.282 295.577,16.501 C 295.73,16.72 295.917,16.876 296.14,16.97 C 296.363,17.064 296.615,17.111 296.896,17.111 C 297.146,17.111 297.402,17.074 297.664,17 C 297.926,16.926 298.195,16.809 298.473,16.648 C 298.751,16.487 299.041,16.281 299.346,16.027 C 299.651,15.773 299.975,15.463 300.319,15.095 L 300.319,9.832 C 300.319,9.48 300.301,9.199 300.266,8.988 C 300.231,8.777 300.155,8.613 300.037,8.496 C 299.919,8.379 299.754,8.297 299.539,8.25 C 299.324,8.203 299.037,8.172 298.678,8.156 L 298.678,7.688 C 299.241,7.618 299.78,7.508 300.295,7.36 C 300.81,7.212 301.287,7.063 301.725,6.915 L 302.077,7.372 L 302.077,15.188 C 302.077,15.672 302.095,16.067 302.13,16.372 C 302.165,16.677 302.237,16.868 302.347,16.946 C 302.441,17.009 302.601,17.022 302.827,16.987 C 303.053,16.952 303.366,16.848 303.765,16.676 L 303.881,17.203 z "
   id="path41" />
	<path
   d="M 317.967,18.164 L 317.967,17.66 C 318.53,17.512 318.942,17.383 319.203,17.273 C 319.464,17.163 319.596,17.054 319.596,16.945 L 319.596,10.746 C 319.596,10.269 319.571,9.873 319.52,9.557 C 319.469,9.241 319.391,8.993 319.286,8.813 C 319.181,8.633 319.044,8.506 318.876,8.432 C 318.708,8.358 318.507,8.321 318.272,8.321 C 318.014,8.321 317.741,8.393 317.452,8.538 C 317.163,8.683 316.866,8.89 316.561,9.159 C 316.256,9.428 315.95,9.757 315.641,10.143 C 315.332,10.529 315.03,10.965 314.733,11.45 L 314.733,16.946 C 314.733,17.055 314.854,17.163 315.096,17.268 C 315.338,17.373 315.768,17.504 316.385,17.661 L 316.385,18.165 L 311.346,18.165 L 311.346,17.66 C 311.909,17.512 312.321,17.383 312.582,17.273 C 312.843,17.163 312.975,17.054 312.975,16.945 L 312.975,10.746 C 312.975,10.269 312.952,9.873 312.905,9.557 C 312.858,9.241 312.782,8.993 312.676,8.813 C 312.57,8.633 312.434,8.506 312.266,8.432 C 312.098,8.358 311.893,8.321 311.651,8.321 C 311.12,8.321 310.563,8.594 309.981,9.141 C 309.399,9.688 308.776,10.457 308.112,11.45 L 308.112,16.946 C 308.112,17.063 308.258,17.184 308.551,17.309 C 308.844,17.434 309.244,17.551 309.752,17.661 L 309.752,18.165 L 304.713,18.165 L 304.713,17.66 C 305.229,17.527 305.631,17.408 305.92,17.303 C 306.209,17.198 306.354,17.078 306.354,16.946 L 306.354,9.832 C 306.354,9.519 306.34,9.273 306.313,9.094 C 306.286,8.915 306.215,8.776 306.102,8.678 C 305.989,8.58 305.823,8.508 305.604,8.461 C 305.385,8.414 305.088,8.367 304.713,8.32 L 304.713,7.852 C 305.01,7.805 305.283,7.748 305.533,7.682 C 305.783,7.616 306.021,7.543 306.248,7.465 C 306.475,7.387 306.691,7.301 306.898,7.207 C 307.105,7.113 307.314,7.016 307.525,6.914 L 307.935,7.324 L 308.064,10.008 C 308.416,9.492 308.771,9.041 309.13,8.654 C 309.489,8.267 309.845,7.945 310.196,7.687 C 310.547,7.429 310.887,7.236 311.216,7.107 C 311.545,6.978 311.849,6.914 312.13,6.914 C 312.505,6.914 312.851,6.959 313.167,7.049 C 313.483,7.139 313.757,7.291 313.987,7.506 C 314.217,7.721 314.399,8.004 314.532,8.356 C 314.665,8.708 314.731,9.145 314.731,9.669 L 314.731,9.915 C 315.059,9.423 315.399,8.991 315.751,8.62 C 316.103,8.249 316.452,7.936 316.8,7.682 C 317.148,7.428 317.488,7.237 317.82,7.108 C 318.152,6.979 318.463,6.915 318.752,6.915 C 319.127,6.915 319.473,6.966 319.789,7.067 C 320.105,7.168 320.379,7.325 320.609,7.536 C 320.839,7.747 321.021,8.015 321.154,8.339 C 321.287,8.663 321.353,9.044 321.353,9.482 L 321.353,16.947 C 321.353,17.056 321.474,17.164 321.716,17.269 C 321.958,17.374 322.388,17.505 323.005,17.662 L 323.005,18.166 L 317.967,18.166 L 317.967,18.164 z "
   id="path43" />
	<path
   d="M 333.495,11.637 C 333.354,11.793 333.167,11.938 332.932,12.071 C 332.697,12.204 332.455,12.321 332.205,12.423 L 326.041,12.423 C 326.049,13.032 326.133,13.612 326.293,14.163 C 326.453,14.714 326.684,15.198 326.984,15.616 C 327.284,16.034 327.648,16.368 328.074,16.618 C 328.5,16.868 328.978,16.993 329.51,16.993 C 329.752,16.993 329.989,16.977 330.219,16.946 C 330.449,16.915 330.698,16.844 330.963,16.735 C 331.228,16.626 331.524,16.465 331.848,16.255 C 332.172,16.045 332.553,15.759 332.991,15.4 C 333.093,15.455 333.18,15.533 333.255,15.634 C 333.33,15.735 333.386,15.818 333.425,15.88 C 332.902,16.45 332.443,16.909 332.048,17.257 C 331.653,17.605 331.282,17.872 330.935,18.06 C 330.588,18.248 330.244,18.371 329.904,18.429 C 329.564,18.487 329.195,18.517 328.797,18.517 C 328.195,18.517 327.623,18.388 327.08,18.13 C 326.537,17.872 326.059,17.507 325.644,17.034 C 325.229,16.561 324.9,15.991 324.654,15.323 C 324.408,14.655 324.285,13.907 324.285,13.079 C 324.285,12.556 324.344,12.04 324.461,11.532 C 324.578,11.024 324.748,10.544 324.971,10.091 C 325.194,9.638 325.465,9.22 325.785,8.837 C 326.105,8.454 326.469,8.122 326.875,7.841 C 327.047,7.724 327.24,7.609 327.455,7.495 C 327.67,7.381 327.894,7.282 328.129,7.196 C 328.364,7.11 328.596,7.042 328.826,6.991 C 329.056,6.94 329.277,6.915 329.488,6.915 C 329.996,6.915 330.449,6.985 330.847,7.126 C 331.245,7.267 331.593,7.456 331.89,7.694 C 332.187,7.932 332.437,8.21 332.64,8.526 C 332.843,8.842 333.009,9.176 333.138,9.528 C 333.267,9.88 333.359,10.237 333.413,10.6 C 333.467,10.963 333.495,11.309 333.495,11.637 z M 329.159,8.145 C 328.753,8.145 328.38,8.223 328.04,8.379 C 327.7,8.535 327.399,8.756 327.138,9.041 C 326.877,9.326 326.658,9.666 326.482,10.061 C 326.306,10.456 326.183,10.891 326.113,11.368 L 331.129,11.368 C 331.309,11.368 331.428,11.339 331.486,11.28 C 331.544,11.221 331.574,11.11 331.574,10.946 C 331.574,10.735 331.545,10.471 331.486,10.155 C 331.427,9.839 331.31,9.53 331.134,9.229 C 330.958,8.928 330.712,8.672 330.396,8.461 C 330.08,8.25 329.667,8.145 329.159,8.145 z "
   id="path45" />
	<path
   d="M 345.284,17.203 C 344.62,17.664 344.071,17.998 343.638,18.205 C 343.205,18.412 342.878,18.516 342.659,18.516 C 342.401,18.516 342.186,18.336 342.014,17.977 C 341.842,17.618 341.748,17.122 341.733,16.489 C 341.381,16.841 341.03,17.145 340.678,17.403 C 340.326,17.661 339.983,17.872 339.647,18.036 C 339.311,18.2 338.993,18.321 338.692,18.399 C 338.391,18.477 338.116,18.516 337.866,18.516 C 337.585,18.516 337.296,18.469 336.999,18.375 C 336.702,18.281 336.435,18.133 336.196,17.93 C 335.957,17.727 335.76,17.465 335.604,17.145 C 335.448,16.825 335.37,16.438 335.37,15.985 C 335.37,15.391 335.474,14.895 335.681,14.497 C 335.888,14.099 336.136,13.755 336.425,13.466 C 336.613,13.278 336.825,13.101 337.064,12.933 C 337.303,12.765 337.619,12.603 338.013,12.447 C 338.407,12.291 338.902,12.142 339.495,12.002 C 340.088,11.862 340.835,11.725 341.733,11.592 L 341.733,9.938 C 341.733,9.672 341.702,9.424 341.639,9.194 C 341.576,8.964 341.471,8.764 341.323,8.596 C 341.175,8.428 340.973,8.299 340.719,8.209 C 340.465,8.119 340.147,8.078 339.764,8.086 C 339.514,8.094 339.268,8.137 339.026,8.215 C 338.784,8.293 338.573,8.403 338.393,8.543 C 338.213,8.683 338.073,8.85 337.971,9.041 C 337.869,9.232 337.83,9.445 337.854,9.68 C 337.862,9.75 337.782,9.83 337.614,9.92 C 337.446,10.01 337.247,10.09 337.016,10.16 C 336.785,10.23 336.559,10.285 336.336,10.324 C 336.113,10.363 335.955,10.371 335.861,10.347 L 335.697,9.89 C 335.877,9.499 336.15,9.124 336.517,8.765 C 336.884,8.406 337.304,8.089 337.777,7.816 C 338.25,7.543 338.75,7.324 339.277,7.16 C 339.804,6.996 340.314,6.914 340.806,6.914 C 341.665,6.914 342.327,7.139 342.792,7.588 C 343.257,8.037 343.489,8.664 343.489,9.469 L 343.489,16.078 C 343.489,16.406 343.532,16.641 343.618,16.781 C 343.704,16.921 343.817,16.992 343.958,16.992 C 344.067,16.992 344.208,16.972 344.38,16.933 C 344.552,16.894 344.794,16.808 345.107,16.675 L 345.284,17.203 z M 338.557,16.992 C 339.026,16.992 339.524,16.873 340.051,16.635 C 340.578,16.397 341.139,16.02 341.733,15.504 L 341.733,12.469 C 341.077,12.578 340.536,12.684 340.11,12.785 C 339.684,12.886 339.335,12.99 339.061,13.096 C 338.787,13.202 338.569,13.313 338.405,13.43 C 338.241,13.547 338.096,13.672 337.971,13.805 C 337.768,14.016 337.604,14.256 337.479,14.526 C 337.354,14.796 337.291,15.114 337.291,15.481 C 337.291,15.794 337.338,16.047 337.432,16.243 C 337.526,16.439 337.639,16.593 337.772,16.706 C 337.905,16.819 338.043,16.895 338.188,16.935 C 338.333,16.975 338.456,16.992 338.557,16.992 z "
   id="path47" />
</g>
<radialGradient
   id="SVGID_1_"
   cx="351.04251"
   cy="273.7402"
   r="87.649498"
   gradientTransform="matrix(0.8747985,-0.4844415,0.7558292,1.3648671,-163.07279,71.597306)"
   gradientUnits="userSpaceOnUse"
   fx="351.04251"
   fy="273.7402">
	<stop
   offset="0"
   style="stop-color:#FFFFFF"
   id="stop50" />
	<stop
   offset="0.1102"
   style="stop-color:#CBCBCB"
   id="stop52" />
	<stop
   offset="0.239"
   style="stop-color:#969696"
   id="stop54" />
	<stop
   offset="0.3696"
   style="stop-color:#686868"
   id="stop56" />
	<stop
   offset="0.4992"
   style="stop-color:#434343"
   id="stop58" />
	<stop
   offset="0.6276"
   style="stop-color:#252525"
   id="stop60" />
	<stop
   offset="0.7546"
   style="stop-color:#111111"
   id="stop62" />
	<stop
   offset="0.8795"
   style="stop-color:#040404"
   id="stop64" />
	<stop
   offset="1"
   style="stop-color:#000000"
   id="stop66" />
</radialGradient>
<path
   d="M 301.929,190.293 C 338.232,169.334 389.599,190.341 416.66,237.213 C 443.723,284.086 436.231,339.074 399.929,360.033 C 363.628,380.992 312.259,359.986 285.198,313.113 C 258.135,266.241 265.628,211.252 301.929,190.293 z "
   id="path68"
   style="fill:url(#SVGID_1_)" />
<line
   x1="98"
   y1="123.164"
   x2="98"
   y2="427.164"
   id="line70"
   style="fill:none;stroke:#000000;stroke-width:2" />
<radialGradient
   id="SVGID_2_"
   cx="97.999496"
   cy="200.16409"
   r="77.7304"
   gradientUnits="userSpaceOnUse"
   gradientTransform="matrix(2.0385114,-1.177824e-6,5.7778634e-7,1,-101.77371,1.1542619e-4)"
   fx="97.999496"
   fy="200.16409">
	<stop
   offset="0"
   style="stop-color:#FFFFFF"
   id="stop73" />
	<stop
   offset="0.0737"
   style="stop-color:#DEDEDE"
   id="stop75" />
	<stop
   offset="0.2168"
   style="stop-color:#A4A4A4"
   id="stop77" />
	<stop
   offset="0.36"
   style="stop-color:#727272"
   id="stop79" />
	<stop
   offset="0.4999"
   style="stop-color:#494949"
   id="stop81" />
	<stop
   offset="0.6359"
   style="stop-color:#292929"
   id="stop83" />
	<stop
   offset="0.7669"
   style="stop-color:#121212"
   id="stop85" />
	<stop
   offset="0.8908"
   style="stop-color:#050505"
   id="stop87" />
	<stop
   offset="1"
   style="stop-color:#000000"
   id="stop89" />
</radialGradient>
<ellipse
   cx="98"
   cy="200.164"
   rx="98"
   ry="49.799999"
   id="ellipse91"
   style="fill:url(#SVGID_2_)"
   sodipodi:cx="98"
   sodipodi:cy="200.164"
   sodipodi:rx="98"
   sodipodi:ry="49.799999" />
<radialGradient
   id="SVGID_3_"
   cx="98"
   cy="350.16409"
   r="64.190399"
   gradientUnits="userSpaceOnUse"
   gradientTransform="matrix(1.7510486,-1.4262683e-6,8.1452242e-7,1,-73.603049,1.3977441e-4)"
   fx="98"
   fy="350.16409">
	<stop
   offset="0"
   style="stop-color:#FFFFFF"
   id="stop94" />
	<stop
   offset="0.0737"
   style="stop-color:#DEDEDE"
   id="stop96" />
	<stop
   offset="0.2168"
   style="stop-color:#A4A4A4"
   id="stop98" />
	<stop
   offset="0.36"
   style="stop-color:#727272"
   id="stop100" />
	<stop
   offset="0.4999"
   style="stop-color:#494949"
   id="stop102" />
	<stop
   offset="0.6359"
   style="stop-color:#292929"
   id="stop104" />
	<stop
   offset="0.7669"
   style="stop-color:#121212"
   id="stop106" />
	<stop
   offset="0.8908"
   style="stop-color:#050505"
   id="stop108" />
	<stop
   offset="1"
   style="stop-color:#000000"
   id="stop110" />
</radialGradient>
<ellipse
   cx="98"
   cy="350.164"
   rx="75.900002"
   ry="49.799999"
   id="ellipse112"
   style="fill:url(#SVGID_3_)"
   sodipodi:cx="98"
   sodipodi:cy="350.164"
   sodipodi:rx="75.900002"
   sodipodi:ry="49.799999" />
<g
   id="g114">
	<path
   d="M 48.816,76.02 C 48.769,76.524 48.709,76.965 48.636,77.343 C 48.563,77.721 48.503,77.995 48.456,78.165 L 40.871,78.165 L 40.871,77.787 C 41.269,77.705 41.581,77.616 41.807,77.519 C 42.033,77.422 42.145,77.333 42.145,77.251 L 42.145,68.014 C 42.145,67.944 42.038,67.856 41.824,67.75 C 41.61,67.644 41.292,67.551 40.87,67.469 L 40.87,67.09 L 47.954,67.09 L 48.244,67.31 C 48.232,67.462 48.215,67.629 48.191,67.811 C 48.167,67.993 48.138,68.174 48.103,68.356 C 48.068,68.538 48.031,68.71 47.993,68.875 C 47.955,69.04 47.918,69.177 47.883,69.288 L 47.487,69.288 C 47.475,69.018 47.45,68.793 47.412,68.611 C 47.374,68.429 47.326,68.284 47.267,68.176 C 47.208,68.068 47.137,67.991 47.052,67.947 C 46.967,67.903 46.872,67.881 46.766,67.881 L 43.549,67.881 L 43.549,71.704 L 47.109,71.704 L 47.338,71.95 C 47.291,72.032 47.234,72.12 47.167,72.214 C 47.1,72.308 47.029,72.4 46.956,72.491 C 46.883,72.582 46.81,72.665 46.736,72.741 C 46.662,72.817 46.594,72.879 46.529,72.926 C 46.441,72.838 46.346,72.765 46.243,72.706 C 46.14,72.647 46.023,72.598 45.891,72.557 C 45.759,72.516 45.604,72.487 45.425,72.469 C 45.246,72.451 45.034,72.443 44.788,72.443 L 43.549,72.443 L 43.549,76.811 C 43.549,76.899 43.57,76.977 43.611,77.044 C 43.652,77.111 43.737,77.17 43.866,77.22 C 43.995,77.27 44.177,77.308 44.411,77.334 C 44.645,77.36 44.956,77.374 45.343,77.374 L 46.477,77.374 C 46.747,77.374 46.977,77.359 47.167,77.33 C 47.357,77.301 47.526,77.235 47.672,77.132 C 47.818,77.029 47.952,76.879 48.072,76.679 C 48.192,76.479 48.314,76.207 48.437,75.862 L 48.816,76.02 z "
   id="path116" />
	<path
   d="M 54.415,82.383 L 54.415,82.005 C 54.966,81.923 55.353,81.837 55.575,81.746 C 55.797,81.655 55.909,81.56 55.909,81.46 L 55.909,76.705 C 55.686,76.975 55.467,77.215 55.25,77.426 C 55.033,77.637 54.809,77.817 54.578,77.967 C 54.347,78.117 54.103,78.231 53.849,78.31 C 53.595,78.389 53.317,78.429 53.018,78.429 C 52.69,78.429 52.353,78.334 52.007,78.143 C 51.661,77.952 51.343,77.679 51.053,77.321 C 50.763,76.963 50.526,76.527 50.341,76.011 C 50.156,75.495 50.064,74.912 50.064,74.262 C 50.064,73.746 50.146,73.272 50.31,72.838 C 50.474,72.404 50.675,72.019 50.912,71.682 C 51.149,71.345 51.403,71.059 51.672,70.825 C 51.941,70.591 52.179,70.415 52.384,70.298 C 52.718,70.116 53.049,69.976 53.377,69.876 C 53.705,69.776 53.981,69.727 54.203,69.727 C 54.361,69.727 54.519,69.737 54.678,69.758 C 54.837,69.779 54.997,69.818 55.161,69.877 C 55.325,69.936 55.495,70.018 55.671,70.123 C 55.847,70.228 56.034,70.369 56.234,70.545 C 56.322,70.492 56.413,70.429 56.506,70.356 C 56.599,70.283 56.691,70.21 56.778,70.136 C 56.865,70.062 56.949,69.99 57.028,69.916 C 57.107,69.842 57.173,69.78 57.226,69.727 L 57.5,69.99 C 57.447,70.154 57.4,70.333 57.359,70.526 C 57.324,70.696 57.293,70.895 57.267,71.124 C 57.241,71.353 57.227,71.599 57.227,71.862 L 57.227,81.46 C 57.227,81.554 57.318,81.648 57.499,81.741 C 57.68,81.834 57.997,81.923 58.448,82.005 L 58.448,82.383 L 54.415,82.383 z M 53.642,77.285 C 53.841,77.285 54.038,77.244 54.231,77.162 C 54.424,77.08 54.615,76.973 54.802,76.841 C 54.989,76.709 55.176,76.558 55.36,76.388 C 55.544,76.218 55.728,76.045 55.909,75.869 L 55.909,71.747 C 55.716,71.413 55.443,71.154 55.092,70.969 C 54.741,70.784 54.354,70.692 53.932,70.692 C 53.604,70.692 53.287,70.761 52.983,70.899 C 52.679,71.037 52.407,71.243 52.17,71.519 C 51.933,71.795 51.742,72.137 51.599,72.547 C 51.456,72.957 51.384,73.438 51.384,73.988 C 51.384,74.486 51.456,74.939 51.599,75.346 C 51.742,75.753 51.926,76.1 52.148,76.388 C 52.37,76.676 52.615,76.896 52.882,77.052 C 53.149,77.208 53.401,77.285 53.642,77.285 z "
   id="path118" />
	<path
   d="M 68.029,77.443 C 67.812,77.584 67.604,77.714 67.405,77.834 C 67.206,77.954 67.021,78.058 66.851,78.146 C 66.681,78.234 66.532,78.303 66.403,78.353 C 66.274,78.403 66.174,78.428 66.104,78.428 C 65.899,78.428 65.732,78.292 65.603,78.019 C 65.474,77.746 65.392,77.309 65.357,76.705 C 64.994,77.068 64.661,77.363 64.359,77.588 C 64.057,77.813 63.779,77.988 63.524,78.111 C 63.269,78.234 63.035,78.318 62.821,78.361 C 62.607,78.404 62.406,78.427 62.219,78.427 C 61.944,78.427 61.68,78.389 61.428,78.313 C 61.176,78.237 60.953,78.098 60.76,77.896 C 60.567,77.694 60.413,77.417 60.299,77.065 C 60.185,76.713 60.128,76.262 60.128,75.711 L 60.128,71.914 C 60.128,71.633 60.119,71.414 60.102,71.259 C 60.085,71.104 60.039,70.987 59.966,70.907 C 59.893,70.827 59.78,70.774 59.628,70.744 C 59.476,70.714 59.265,70.685 58.995,70.656 L 58.995,70.304 C 59.206,70.281 59.404,70.251 59.588,70.216 C 59.772,70.181 59.951,70.14 60.124,70.093 C 60.297,70.046 60.471,69.992 60.647,69.93 C 60.823,69.868 61.007,69.8 61.201,69.723 L 61.447,70.066 L 61.447,75.225 C 61.447,75.635 61.478,75.978 61.539,76.253 C 61.6,76.528 61.688,76.748 61.803,76.912 C 61.918,77.076 62.058,77.193 62.225,77.264 C 62.392,77.335 62.581,77.369 62.792,77.369 C 62.98,77.369 63.171,77.341 63.368,77.286 C 63.565,77.231 63.766,77.142 63.974,77.022 C 64.182,76.902 64.4,76.747 64.629,76.556 C 64.858,76.365 65.101,76.133 65.358,75.857 L 65.358,71.911 C 65.358,71.647 65.345,71.436 65.318,71.278 C 65.291,71.12 65.235,70.997 65.147,70.909 C 65.059,70.821 64.935,70.76 64.773,70.724 C 64.611,70.688 64.397,70.665 64.127,70.654 L 64.127,70.302 C 64.549,70.249 64.953,70.167 65.34,70.056 C 65.727,69.945 66.084,69.833 66.412,69.722 L 66.676,70.065 L 66.676,75.927 C 66.676,76.29 66.689,76.586 66.716,76.815 C 66.743,77.044 66.797,77.187 66.879,77.246 C 66.949,77.293 67.069,77.303 67.239,77.277 C 67.409,77.251 67.643,77.173 67.942,77.044 L 68.029,77.443 z "
   id="path120" />
	<path
   d="M 76.309,77.443 C 75.811,77.789 75.399,78.039 75.074,78.194 C 74.749,78.349 74.504,78.427 74.34,78.427 C 74.147,78.427 73.986,78.292 73.857,78.023 C 73.728,77.754 73.658,77.381 73.646,76.907 C 73.382,77.171 73.119,77.399 72.855,77.593 C 72.591,77.787 72.334,77.945 72.082,78.068 C 71.83,78.191 71.591,78.282 71.366,78.34 C 71.141,78.398 70.934,78.428 70.746,78.428 C 70.535,78.428 70.318,78.393 70.096,78.323 C 69.874,78.253 69.673,78.141 69.494,77.989 C 69.315,77.837 69.167,77.64 69.05,77.4 C 68.933,77.16 68.874,76.87 68.874,76.53 C 68.874,76.085 68.952,75.713 69.107,75.414 C 69.262,75.115 69.448,74.857 69.665,74.641 C 69.806,74.5 69.965,74.367 70.144,74.241 C 70.323,74.115 70.56,73.993 70.856,73.876 C 71.152,73.759 71.523,73.647 71.968,73.542 C 72.413,73.437 72.973,73.334 73.647,73.234 L 73.647,71.995 C 73.647,71.796 73.624,71.61 73.577,71.437 C 73.53,71.264 73.451,71.115 73.34,70.989 C 73.229,70.863 73.078,70.766 72.887,70.699 C 72.696,70.632 72.458,70.601 72.171,70.607 C 71.983,70.613 71.799,70.645 71.617,70.704 C 71.435,70.763 71.277,70.845 71.142,70.95 C 71.007,71.055 70.902,71.18 70.826,71.324 C 70.75,71.468 70.721,71.627 70.738,71.803 C 70.744,71.856 70.684,71.916 70.558,71.983 C 70.432,72.05 70.283,72.11 70.11,72.163 C 69.937,72.216 69.767,72.257 69.6,72.286 C 69.433,72.315 69.314,72.321 69.244,72.304 L 69.121,71.961 C 69.256,71.668 69.461,71.387 69.736,71.117 C 70.011,70.847 70.326,70.61 70.681,70.405 C 71.036,70.2 71.41,70.036 71.806,69.913 C 72.202,69.79 72.584,69.728 72.953,69.728 C 73.598,69.728 74.094,69.896 74.443,70.233 C 74.792,70.57 74.966,71.04 74.966,71.644 L 74.966,76.6 C 74.966,76.846 74.998,77.022 75.063,77.127 C 75.128,77.232 75.212,77.285 75.318,77.285 C 75.4,77.285 75.506,77.27 75.634,77.241 C 75.762,77.212 75.945,77.147 76.179,77.048 L 76.309,77.443 z M 71.264,77.285 C 71.616,77.285 71.989,77.196 72.385,77.017 C 72.781,76.838 73.201,76.556 73.646,76.169 L 73.646,73.893 C 73.154,73.975 72.748,74.054 72.429,74.13 C 72.11,74.206 71.847,74.284 71.642,74.363 C 71.437,74.442 71.273,74.526 71.15,74.613 C 71.027,74.7 70.919,74.795 70.825,74.894 C 70.673,75.052 70.55,75.232 70.456,75.435 C 70.362,75.638 70.315,75.876 70.315,76.151 C 70.315,76.385 70.35,76.576 70.42,76.722 C 70.49,76.868 70.575,76.984 70.675,77.069 C 70.775,77.154 70.879,77.211 70.987,77.24 C 71.095,77.269 71.188,77.285 71.264,77.285 z "
   id="path122" />
	<path
   d="M 82.373,77.136 C 82.086,77.347 81.802,77.533 81.52,77.694 C 81.238,77.855 80.971,77.99 80.716,78.098 C 80.461,78.206 80.225,78.288 80.008,78.344 C 79.791,78.4 79.607,78.427 79.454,78.427 C 79.249,78.427 79.054,78.389 78.87,78.313 C 78.686,78.237 78.523,78.112 78.382,77.939 C 78.241,77.766 78.13,77.539 78.048,77.258 C 77.966,76.977 77.925,76.631 77.925,76.221 L 77.925,70.825 L 76.791,70.825 L 76.606,70.579 L 77.292,69.99 L 77.925,69.99 L 77.925,67.828 L 78.971,66.914 L 79.243,67.134 L 79.243,69.99 L 82.117,69.99 L 82.372,70.245 C 82.319,70.327 82.253,70.415 82.174,70.509 C 82.095,70.603 82.014,70.691 81.932,70.773 C 81.85,70.855 81.769,70.93 81.69,70.997 C 81.611,71.064 81.542,71.11 81.483,71.133 C 81.342,71.063 81.129,70.994 80.841,70.926 C 80.553,70.858 80.173,70.825 79.698,70.825 L 79.241,70.825 L 79.241,75.466 C 79.241,75.818 79.257,76.111 79.289,76.345 C 79.321,76.579 79.375,76.765 79.452,76.903 C 79.529,77.041 79.626,77.139 79.746,77.197 C 79.866,77.255 80.014,77.285 80.19,77.285 C 80.395,77.285 80.653,77.244 80.963,77.162 C 81.273,77.08 81.657,76.922 82.114,76.687 L 82.373,77.136 z "
   id="path124" />
	<path
   d="M 90.978,73.901 C 90.978,74.294 90.928,74.677 90.829,75.052 C 90.73,75.427 90.592,75.781 90.416,76.115 C 90.24,76.449 90.029,76.758 89.783,77.042 C 89.537,77.326 89.266,77.571 88.97,77.776 C 88.674,77.981 88.359,78.141 88.025,78.255 C 87.691,78.369 87.345,78.426 86.988,78.426 C 86.431,78.426 85.929,78.321 85.481,78.11 C 85.033,77.899 84.649,77.609 84.33,77.24 C 84.011,76.871 83.765,76.431 83.592,75.922 C 83.419,75.413 83.333,74.859 83.333,74.261 C 83.333,73.874 83.381,73.493 83.478,73.118 C 83.575,72.743 83.709,72.387 83.882,72.05 C 84.055,71.713 84.263,71.403 84.506,71.118 C 84.749,70.833 85.019,70.589 85.315,70.384 C 85.611,70.179 85.93,70.018 86.273,69.901 C 86.616,69.784 86.969,69.725 87.332,69.725 C 87.883,69.725 88.382,69.83 88.831,70.041 C 89.28,70.252 89.663,70.543 89.982,70.916 C 90.301,71.289 90.547,71.729 90.72,72.239 C 90.893,72.749 90.978,73.304 90.978,73.901 z M 89.615,74.165 C 89.615,73.702 89.539,73.261 89.386,72.842 C 89.233,72.423 89.037,72.054 88.797,71.735 C 88.557,71.416 88.284,71.162 87.98,70.975 C 87.676,70.788 87.374,70.694 87.075,70.694 C 86.63,70.694 86.255,70.779 85.95,70.949 C 85.645,71.119 85.401,71.352 85.216,71.648 C 85.031,71.944 84.898,72.294 84.816,72.698 C 84.734,73.102 84.693,73.539 84.693,74.008 C 84.693,74.471 84.775,74.912 84.939,75.331 C 85.103,75.75 85.31,76.118 85.559,76.434 C 85.808,76.75 86.082,77.001 86.381,77.185 C 86.68,77.369 86.964,77.462 87.234,77.462 C 87.65,77.462 88.007,77.384 88.306,77.229 C 88.605,77.074 88.851,76.853 89.044,76.565 C 89.237,76.277 89.381,75.932 89.475,75.528 C 89.569,75.124 89.615,74.669 89.615,74.165 z "
   id="path126" />
	<path
   d="M 98.448,70.052 C 98.501,70.087 98.526,70.19 98.523,70.36 C 98.52,70.53 98.497,70.726 98.453,70.949 C 98.409,71.172 98.352,71.4 98.282,71.635 C 98.212,71.87 98.141,72.066 98.071,72.224 L 97.693,72.224 C 97.658,71.99 97.608,71.79 97.544,71.626 C 97.48,71.462 97.405,71.332 97.32,71.235 C 97.235,71.138 97.141,71.068 97.039,71.024 C 96.937,70.98 96.83,70.958 96.718,70.958 C 96.589,70.958 96.438,71.012 96.265,71.121 C 96.092,71.23 95.915,71.399 95.733,71.631 C 95.551,71.863 95.371,72.158 95.192,72.519 C 95.013,72.88 94.854,73.309 94.713,73.807 L 94.713,77.252 C 94.713,77.34 94.823,77.431 95.043,77.524 C 95.263,77.617 95.648,77.706 96.199,77.788 L 96.199,78.166 L 92.165,78.166 L 92.165,77.788 C 92.552,77.7 92.853,77.614 93.07,77.529 C 93.287,77.444 93.395,77.352 93.395,77.252 L 93.395,72.137 C 93.395,71.944 93.389,71.781 93.377,71.649 C 93.365,71.517 93.351,71.41 93.333,71.328 C 93.315,71.246 93.293,71.182 93.267,71.135 C 93.241,71.088 93.216,71.05 93.192,71.021 C 93.151,70.98 93.106,70.946 93.056,70.92 C 93.006,70.894 92.942,70.872 92.863,70.854 C 92.784,70.836 92.689,70.823 92.577,70.814 C 92.465,70.805 92.328,70.795 92.164,70.783 L 92.164,70.43 C 92.545,70.33 92.918,70.229 93.285,70.127 C 93.652,70.025 93.981,69.891 94.274,69.727 L 94.582,70.035 L 94.696,72.03 C 94.854,71.708 95.026,71.406 95.21,71.125 C 95.394,70.844 95.592,70.599 95.803,70.391 C 96.014,70.183 96.235,70.02 96.467,69.903 C 96.699,69.786 96.94,69.727 97.192,69.727 C 97.38,69.727 97.582,69.75 97.798,69.797 C 98.014,69.844 98.231,69.929 98.448,70.052 z "
   id="path128" />
	<path
   d="M 99.424,78.164 L 99.424,77.786 C 99.822,77.704 100.127,77.615 100.338,77.518 C 100.549,77.421 100.654,77.332 100.654,77.25 L 100.654,72.275 C 100.654,71.976 100.648,71.734 100.636,71.55 C 100.624,71.366 100.58,71.222 100.504,71.119 C 100.428,71.016 100.306,70.942 100.139,70.895 C 99.972,70.848 99.733,70.81 99.423,70.781 L 99.423,70.43 C 99.605,70.395 99.797,70.352 99.999,70.303 C 100.201,70.254 100.402,70.198 100.601,70.136 C 100.8,70.074 100.991,70.009 101.172,69.938 C 101.353,69.867 101.521,69.797 101.673,69.727 L 101.972,69.727 L 101.972,77.25 C 101.972,77.32 102.07,77.407 102.266,77.509 C 102.462,77.611 102.774,77.704 103.202,77.786 L 103.202,78.164 L 99.424,78.164 L 99.424,78.164 z M 102.236,67.081 C 102.236,67.245 102.21,67.4 102.157,67.547 C 102.104,67.694 102.032,67.821 101.942,67.929 C 101.852,68.037 101.744,68.124 101.621,68.188 C 101.498,68.252 101.363,68.285 101.217,68.285 C 100.953,68.285 100.764,68.212 100.65,68.065 C 100.536,67.918 100.479,67.711 100.479,67.441 C 100.479,67.277 100.505,67.122 100.558,66.975 C 100.611,66.828 100.684,66.701 100.778,66.593 C 100.872,66.485 100.979,66.4 101.099,66.338 C 101.219,66.276 101.349,66.246 101.49,66.246 C 101.987,66.246 102.236,66.524 102.236,67.081 z "
   id="path130" />
	<path
   d="M 111.825,77.443 C 111.327,77.789 110.915,78.039 110.59,78.194 C 110.265,78.349 110.02,78.427 109.856,78.427 C 109.663,78.427 109.502,78.292 109.373,78.023 C 109.244,77.754 109.174,77.381 109.162,76.907 C 108.898,77.171 108.635,77.399 108.371,77.593 C 108.107,77.787 107.85,77.945 107.598,78.068 C 107.346,78.191 107.107,78.282 106.882,78.34 C 106.657,78.398 106.45,78.428 106.262,78.428 C 106.051,78.428 105.834,78.393 105.612,78.323 C 105.39,78.253 105.189,78.141 105.01,77.989 C 104.831,77.837 104.683,77.64 104.566,77.4 C 104.449,77.16 104.39,76.87 104.39,76.53 C 104.39,76.085 104.468,75.713 104.623,75.414 C 104.778,75.115 104.964,74.857 105.181,74.641 C 105.322,74.5 105.481,74.367 105.66,74.241 C 105.839,74.115 106.076,73.993 106.372,73.876 C 106.668,73.759 107.039,73.647 107.484,73.542 C 107.929,73.437 108.489,73.334 109.163,73.234 L 109.163,71.995 C 109.163,71.796 109.14,71.61 109.093,71.437 C 109.046,71.264 108.967,71.115 108.856,70.989 C 108.745,70.863 108.594,70.766 108.403,70.699 C 108.212,70.632 107.974,70.601 107.687,70.607 C 107.499,70.613 107.315,70.645 107.133,70.704 C 106.951,70.763 106.793,70.845 106.658,70.95 C 106.523,71.055 106.418,71.18 106.342,71.324 C 106.266,71.468 106.237,71.627 106.254,71.803 C 106.26,71.856 106.2,71.916 106.074,71.983 C 105.948,72.05 105.799,72.11 105.626,72.163 C 105.453,72.216 105.283,72.257 105.116,72.286 C 104.949,72.315 104.83,72.321 104.76,72.304 L 104.637,71.961 C 104.772,71.668 104.977,71.387 105.252,71.117 C 105.527,70.847 105.842,70.61 106.197,70.405 C 106.552,70.2 106.926,70.036 107.322,69.913 C 107.718,69.79 108.1,69.728 108.469,69.728 C 109.114,69.728 109.61,69.896 109.959,70.233 C 110.308,70.57 110.482,71.04 110.482,71.644 L 110.482,76.6 C 110.482,76.846 110.514,77.022 110.579,77.127 C 110.644,77.232 110.728,77.285 110.834,77.285 C 110.916,77.285 111.022,77.27 111.15,77.241 C 111.278,77.212 111.461,77.147 111.695,77.048 L 111.825,77.443 z M 106.78,77.285 C 107.132,77.285 107.505,77.196 107.901,77.017 C 108.297,76.838 108.717,76.556 109.162,76.169 L 109.162,73.893 C 108.67,73.975 108.264,74.054 107.945,74.13 C 107.626,74.206 107.363,74.284 107.158,74.363 C 106.953,74.442 106.789,74.526 106.666,74.613 C 106.543,74.7 106.435,74.795 106.341,74.894 C 106.189,75.052 106.066,75.232 105.972,75.435 C 105.878,75.638 105.831,75.876 105.831,76.151 C 105.831,76.385 105.866,76.576 105.936,76.722 C 106.006,76.868 106.091,76.984 106.191,77.069 C 106.291,77.154 106.395,77.211 106.503,77.24 C 106.611,77.269 106.704,77.285 106.78,77.285 z "
   id="path132" />
	<path
   d="M 112.476,78.164 L 112.476,77.786 C 112.728,77.745 112.939,77.703 113.109,77.659 C 113.279,77.615 113.414,77.571 113.513,77.527 C 113.612,77.483 113.684,77.438 113.728,77.391 C 113.772,77.344 113.794,77.297 113.794,77.25 L 113.794,66.773 C 113.794,66.509 113.776,66.304 113.741,66.158 C 113.706,66.012 113.641,65.902 113.548,65.828 C 113.455,65.754 113.328,65.705 113.17,65.679 C 113.012,65.653 112.81,65.625 112.564,65.596 L 112.564,65.244 C 112.986,65.162 113.373,65.071 113.724,64.972 C 114.075,64.873 114.433,64.729 114.796,64.541 L 115.112,64.84 L 115.112,77.25 C 115.112,77.338 115.212,77.429 115.411,77.522 C 115.61,77.615 115.95,77.704 116.431,77.786 L 116.431,78.164 L 112.476,78.164 z "
   id="path134" />
	<path
   d="M 129.482,70.368 C 129.306,70.409 129.163,70.447 129.051,70.482 C 128.939,70.517 128.849,70.557 128.779,70.601 C 128.709,70.645 128.654,70.695 128.616,70.75 C 128.578,70.805 128.544,70.877 128.515,70.965 L 126.028,77.645 C 125.975,77.774 125.899,77.884 125.799,77.975 C 125.699,78.066 125.591,78.142 125.474,78.204 C 125.357,78.266 125.241,78.314 125.127,78.349 C 125.013,78.384 124.918,78.411 124.841,78.428 L 121.941,70.966 C 121.888,70.802 121.786,70.677 121.633,70.592 C 121.48,70.507 121.258,70.432 120.965,70.368 L 120.965,69.99 L 124.358,69.99 L 124.358,70.368 C 124.129,70.397 123.943,70.427 123.8,70.456 C 123.657,70.485 123.545,70.522 123.466,70.566 C 123.387,70.61 123.341,70.664 123.33,70.729 C 123.319,70.794 123.33,70.873 123.365,70.966 L 125.527,76.6 L 127.557,70.966 C 127.586,70.878 127.597,70.803 127.588,70.742 C 127.579,70.681 127.54,70.628 127.469,70.584 C 127.398,70.54 127.298,70.502 127.166,70.47 C 127.034,70.438 126.86,70.404 126.643,70.369 L 126.643,69.99 L 129.482,69.99 L 129.482,70.368 z "
   id="path136" />
	<path
   d="M 130.282,78.164 L 130.282,77.786 C 130.68,77.704 130.985,77.615 131.196,77.518 C 131.407,77.421 131.512,77.332 131.512,77.25 L 131.512,72.275 C 131.512,71.976 131.506,71.734 131.494,71.55 C 131.482,71.366 131.438,71.222 131.362,71.119 C 131.286,71.016 131.164,70.942 130.997,70.895 C 130.83,70.848 130.591,70.81 130.281,70.781 L 130.281,70.43 C 130.463,70.395 130.655,70.352 130.857,70.303 C 131.059,70.254 131.26,70.198 131.459,70.136 C 131.658,70.074 131.849,70.009 132.03,69.938 C 132.211,69.867 132.379,69.797 132.531,69.727 L 132.83,69.727 L 132.83,77.25 C 132.83,77.32 132.928,77.407 133.124,77.509 C 133.32,77.611 133.632,77.704 134.06,77.786 L 134.06,78.164 L 130.282,78.164 L 130.282,78.164 z M 133.095,67.081 C 133.095,67.245 133.069,67.4 133.016,67.547 C 132.963,67.694 132.891,67.821 132.801,67.929 C 132.711,68.037 132.603,68.124 132.48,68.188 C 132.357,68.252 132.222,68.285 132.076,68.285 C 131.812,68.285 131.623,68.212 131.509,68.065 C 131.395,67.918 131.338,67.711 131.338,67.441 C 131.338,67.277 131.364,67.122 131.417,66.975 C 131.47,66.828 131.543,66.701 131.637,66.593 C 131.731,66.485 131.838,66.4 131.958,66.338 C 132.078,66.276 132.208,66.246 132.349,66.246 C 132.846,66.246 133.095,66.524 133.095,67.081 z "
   id="path138" />
	<path
   d="M 142.156,73.269 C 142.051,73.386 141.91,73.495 141.734,73.594 C 141.558,73.693 141.377,73.782 141.189,73.858 L 136.566,73.858 C 136.572,74.315 136.635,74.75 136.755,75.163 C 136.875,75.576 137.048,75.939 137.274,76.253 C 137.5,76.567 137.772,76.817 138.091,77.004 C 138.41,77.191 138.769,77.285 139.168,77.285 C 139.35,77.285 139.527,77.273 139.7,77.25 C 139.873,77.227 140.059,77.174 140.258,77.092 C 140.457,77.01 140.678,76.89 140.922,76.732 C 141.166,76.574 141.451,76.36 141.779,76.09 C 141.855,76.131 141.921,76.19 141.977,76.266 C 142.033,76.342 142.075,76.404 142.104,76.451 C 141.711,76.879 141.367,77.223 141.071,77.484 C 140.775,77.745 140.497,77.945 140.236,78.086 C 139.975,78.227 139.717,78.319 139.463,78.363 C 139.209,78.407 138.931,78.429 138.632,78.429 C 138.181,78.429 137.752,78.332 137.344,78.139 C 136.936,77.946 136.578,77.672 136.267,77.317 C 135.956,76.962 135.709,76.535 135.524,76.034 C 135.339,75.533 135.247,74.972 135.247,74.351 C 135.247,73.958 135.291,73.572 135.379,73.191 C 135.467,72.81 135.594,72.45 135.761,72.11 C 135.928,71.77 136.132,71.457 136.372,71.17 C 136.612,70.883 136.885,70.634 137.189,70.423 C 137.318,70.335 137.463,70.249 137.624,70.164 C 137.785,70.079 137.954,70.004 138.129,69.94 C 138.304,69.876 138.479,69.824 138.652,69.786 C 138.825,69.748 138.99,69.729 139.149,69.729 C 139.53,69.729 139.87,69.782 140.169,69.887 C 140.468,69.992 140.729,70.135 140.951,70.313 C 141.173,70.491 141.361,70.7 141.514,70.937 C 141.667,71.174 141.791,71.425 141.888,71.688 C 141.985,71.951 142.054,72.22 142.095,72.492 C 142.136,72.764 142.156,73.022 142.156,73.269 z M 138.904,70.649 C 138.599,70.649 138.32,70.708 138.065,70.825 C 137.81,70.942 137.585,71.108 137.388,71.322 C 137.191,71.536 137.028,71.791 136.896,72.087 C 136.764,72.383 136.672,72.71 136.619,73.067 L 140.381,73.067 C 140.516,73.067 140.605,73.045 140.649,73.001 C 140.693,72.957 140.715,72.874 140.715,72.751 C 140.715,72.593 140.693,72.395 140.649,72.158 C 140.605,71.921 140.517,71.689 140.385,71.464 C 140.253,71.239 140.069,71.047 139.831,70.888 C 139.593,70.729 139.285,70.649 138.904,70.649 z "
   id="path140" />
	<path
   d="M 155.384,70.368 C 155.202,70.409 155.059,70.449 154.953,70.487 C 154.847,70.525 154.764,70.563 154.703,70.601 C 154.642,70.639 154.598,70.683 154.571,70.733 C 154.544,70.783 154.523,70.843 154.505,70.913 L 152.563,77.645 C 152.528,77.774 152.459,77.884 152.356,77.975 C 152.253,78.066 152.141,78.142 152.018,78.204 C 151.895,78.266 151.773,78.314 151.653,78.349 C 151.533,78.384 151.435,78.411 151.359,78.428 L 149.267,72.469 L 147.465,77.646 C 147.418,77.781 147.346,77.894 147.25,77.984 C 147.154,78.074 147.046,78.151 146.929,78.213 C 146.812,78.275 146.696,78.321 146.582,78.354 C 146.468,78.387 146.373,78.411 146.296,78.429 L 143.993,70.914 C 143.94,70.685 143.621,70.504 143.035,70.369 L 143.035,69.99 L 146.428,69.99 L 146.428,70.368 C 146.141,70.397 145.918,70.431 145.76,70.469 C 145.602,70.507 145.488,70.551 145.417,70.601 C 145.346,70.651 145.31,70.702 145.307,70.755 C 145.304,70.808 145.311,70.86 145.329,70.913 L 146.981,76.494 L 149.143,69.99 L 149.749,69.99 L 152.034,76.494 L 153.555,70.913 C 153.59,70.778 153.529,70.67 153.37,70.588 C 153.211,70.506 152.931,70.433 152.526,70.368 L 152.526,69.99 L 155.382,69.99 L 155.382,70.368 L 155.384,70.368 z "
   id="path142" />
</g>
<g
   id="g144">
	<path
   d="M 302.631,78.164 L 302.631,77.786 C 303.029,77.704 303.341,77.615 303.567,77.518 C 303.793,77.421 303.906,77.332 303.906,77.25 L 303.906,67.705 C 303.689,67.734 303.473,67.765 303.26,67.797 C 303.045,67.829 302.836,67.863 302.631,67.898 L 302.552,67.353 C 302.833,67.277 303.139,67.207 303.471,67.142 C 303.801,67.078 304.146,67.022 304.503,66.975 C 304.86,66.928 305.222,66.892 305.588,66.865 C 305.954,66.838 306.317,66.825 306.674,66.825 C 307.307,66.825 307.878,66.892 308.388,67.027 C 308.898,67.162 309.332,67.361 309.694,67.625 C 310.053,67.889 310.332,68.214 310.528,68.601 C 310.724,68.988 310.823,69.433 310.823,69.937 C 310.823,70.341 310.766,70.71 310.651,71.044 C 310.538,71.378 310.384,71.675 310.194,71.936 C 310.004,72.197 309.786,72.422 309.54,72.613 C 309.294,72.804 309.037,72.962 308.77,73.088 C 308.503,73.214 308.237,73.308 307.971,73.369 C 307.703,73.431 307.456,73.461 307.228,73.461 C 306.677,73.461 306.206,73.373 305.813,73.197 L 305.611,72.538 C 305.857,72.649 306.092,72.721 306.319,72.753 C 306.544,72.785 306.759,72.801 306.965,72.801 C 307.235,72.801 307.516,72.748 307.809,72.643 C 308.102,72.538 308.372,72.379 308.618,72.168 C 308.864,71.957 309.066,71.696 309.224,71.386 C 309.382,71.076 309.461,70.712 309.461,70.296 C 309.461,69.816 309.374,69.402 309.202,69.057 C 309.028,68.711 308.793,68.429 308.494,68.209 C 308.195,67.989 307.847,67.827 307.448,67.721 C 307.049,67.615 306.625,67.563 306.174,67.563 C 306.028,67.563 305.882,67.564 305.739,67.567 C 305.594,67.57 305.453,67.574 305.312,67.58 L 305.312,77.248 C 305.312,77.283 305.335,77.321 305.382,77.362 C 305.429,77.403 305.51,77.447 305.623,77.494 C 305.738,77.541 305.894,77.588 306.094,77.635 C 306.294,77.682 306.545,77.732 306.85,77.784 L 306.85,78.162 L 302.631,78.162 L 302.631,78.164 z "
   id="path146" />
	<path
   d="M 319.955,73.901 C 319.955,74.294 319.905,74.677 319.806,75.052 C 319.707,75.427 319.569,75.781 319.393,76.115 C 319.217,76.449 319.006,76.758 318.76,77.042 C 318.514,77.326 318.242,77.571 317.947,77.776 C 317.652,77.981 317.337,78.141 317.003,78.255 C 316.669,78.369 316.323,78.426 315.966,78.426 C 315.409,78.426 314.906,78.321 314.459,78.11 C 314.01,77.899 313.626,77.609 313.307,77.24 C 312.988,76.871 312.742,76.431 312.569,75.922 C 312.396,75.413 312.31,74.859 312.31,74.261 C 312.31,73.874 312.358,73.493 312.456,73.118 C 312.552,72.743 312.686,72.387 312.86,72.05 C 313.032,71.713 313.24,71.403 313.483,71.118 C 313.726,70.833 313.996,70.589 314.292,70.384 C 314.588,70.179 314.907,70.018 315.251,69.901 C 315.593,69.784 315.946,69.725 316.31,69.725 C 316.861,69.725 317.361,69.83 317.808,70.041 C 318.257,70.252 318.64,70.543 318.96,70.916 C 319.278,71.288 319.524,71.729 319.698,72.239 C 319.868,72.75 319.955,73.304 319.955,73.901 z M 318.592,74.165 C 318.592,73.702 318.516,73.261 318.363,72.842 C 318.21,72.423 318.014,72.054 317.774,71.735 C 317.534,71.416 317.261,71.162 316.957,70.975 C 316.653,70.788 316.351,70.694 316.052,70.694 C 315.607,70.694 315.232,70.779 314.927,70.949 C 314.622,71.119 314.377,71.352 314.194,71.648 C 314.008,71.944 313.876,72.294 313.794,72.698 C 313.712,73.102 313.671,73.539 313.671,74.008 C 313.671,74.471 313.753,74.912 313.917,75.331 C 314.081,75.75 314.287,76.118 314.536,76.434 C 314.785,76.75 315.059,77.001 315.358,77.185 C 315.657,77.369 315.941,77.462 316.211,77.462 C 316.627,77.462 316.984,77.384 317.283,77.229 C 317.582,77.074 317.828,76.853 318.021,76.565 C 318.214,76.277 318.358,75.932 318.452,75.528 C 318.546,75.124 318.592,74.669 318.592,74.165 z "
   id="path148" />
	<path
   d="M 321.185,78.164 L 321.185,77.786 C 321.437,77.745 321.648,77.703 321.818,77.659 C 321.988,77.615 322.123,77.571 322.222,77.527 C 322.321,77.483 322.393,77.438 322.438,77.391 C 322.481,77.344 322.503,77.297 322.503,77.25 L 322.503,66.773 C 322.503,66.509 322.485,66.304 322.45,66.158 C 322.415,66.012 322.35,65.902 322.257,65.828 C 322.164,65.754 322.037,65.705 321.879,65.679 C 321.721,65.653 321.519,65.625 321.273,65.596 L 321.273,65.244 C 321.695,65.162 322.082,65.071 322.433,64.972 C 322.784,64.873 323.142,64.729 323.505,64.541 L 323.821,64.84 L 323.821,77.25 C 323.821,77.338 323.921,77.429 324.12,77.522 C 324.319,77.615 324.659,77.704 325.14,77.786 L 325.14,78.164 L 321.185,78.164 z "
   id="path150" />
	<path
   d="M 333.674,77.443 C 333.176,77.789 332.764,78.039 332.44,78.194 C 332.114,78.349 331.87,78.427 331.706,78.427 C 331.513,78.427 331.352,78.292 331.223,78.023 C 331.094,77.754 331.024,77.381 331.012,76.907 C 330.748,77.171 330.485,77.399 330.221,77.593 C 329.957,77.787 329.7,77.945 329.448,78.068 C 329.196,78.191 328.957,78.282 328.732,78.34 C 328.505,78.399 328.299,78.428 328.112,78.428 C 327.901,78.428 327.684,78.393 327.462,78.323 C 327.24,78.253 327.038,78.141 326.859,77.989 C 326.68,77.837 326.533,77.64 326.416,77.4 C 326.299,77.16 326.24,76.87 326.24,76.53 C 326.24,76.085 326.317,75.713 326.472,75.414 C 326.627,75.115 326.814,74.857 327.031,74.641 C 327.172,74.5 327.331,74.367 327.51,74.241 C 327.689,74.115 327.926,73.993 328.223,73.876 C 328.518,73.759 328.889,73.647 329.334,73.542 C 329.779,73.437 330.339,73.334 331.013,73.234 L 331.013,71.995 C 331.013,71.796 330.99,71.61 330.943,71.437 C 330.896,71.264 330.817,71.115 330.706,70.989 C 330.595,70.863 330.443,70.766 330.253,70.699 C 330.063,70.632 329.824,70.601 329.537,70.607 C 329.349,70.613 329.165,70.645 328.983,70.704 C 328.801,70.763 328.643,70.845 328.508,70.95 C 328.373,71.055 328.268,71.18 328.192,71.324 C 328.116,71.468 328.087,71.627 328.104,71.803 C 328.11,71.856 328.049,71.916 327.924,71.983 C 327.797,72.05 327.648,72.11 327.475,72.163 C 327.302,72.216 327.133,72.257 326.965,72.286 C 326.799,72.315 326.68,72.321 326.61,72.304 L 326.487,71.961 C 326.622,71.668 326.827,71.387 327.102,71.117 C 327.377,70.847 327.692,70.61 328.047,70.405 C 328.401,70.2 328.776,70.036 329.172,69.913 C 329.567,69.79 329.949,69.728 330.318,69.728 C 330.963,69.728 331.459,69.896 331.808,70.233 C 332.156,70.57 332.33,71.04 332.33,71.644 L 332.33,76.6 C 332.33,76.846 332.362,77.022 332.427,77.127 C 332.492,77.232 332.576,77.285 332.682,77.285 C 332.764,77.285 332.87,77.27 332.998,77.241 C 333.126,77.212 333.309,77.147 333.543,77.048 L 333.674,77.443 z M 328.629,77.285 C 328.981,77.285 329.354,77.196 329.75,77.017 C 330.145,76.838 330.565,76.556 331.011,76.169 L 331.011,73.893 C 330.519,73.975 330.113,74.054 329.793,74.13 C 329.473,74.206 329.212,74.284 329.007,74.363 C 328.802,74.442 328.638,74.526 328.515,74.613 C 328.392,74.7 328.284,74.795 328.19,74.894 C 328.038,75.052 327.915,75.232 327.821,75.435 C 327.727,75.638 327.68,75.876 327.68,76.151 C 327.68,76.385 327.715,76.576 327.785,76.722 C 327.855,76.868 327.94,76.984 328.04,77.069 C 328.14,77.154 328.243,77.211 328.352,77.24 C 328.461,77.269 328.553,77.285 328.629,77.285 z "
   id="path152" />
	<path
   d="M 340.565,70.052 C 340.618,70.087 340.642,70.19 340.639,70.36 C 340.636,70.53 340.614,70.726 340.569,70.949 C 340.526,71.172 340.468,71.4 340.398,71.635 C 340.328,71.87 340.257,72.066 340.187,72.224 L 339.809,72.224 C 339.774,71.99 339.724,71.79 339.66,71.626 C 339.596,71.462 339.52,71.332 339.436,71.235 C 339.35,71.138 339.256,71.068 339.155,71.024 C 339.051,70.98 338.945,70.958 338.834,70.958 C 338.705,70.958 338.554,71.012 338.382,71.121 C 338.208,71.229 338.031,71.399 337.85,71.631 C 337.669,71.863 337.488,72.158 337.31,72.519 C 337.13,72.879 336.971,73.309 336.831,73.807 L 336.831,77.252 C 336.831,77.34 336.941,77.431 337.16,77.524 C 337.381,77.618 337.765,77.706 338.316,77.788 L 338.316,78.166 L 334.282,78.166 L 334.282,77.788 C 334.669,77.7 334.97,77.614 335.187,77.529 C 335.404,77.444 335.512,77.352 335.512,77.252 L 335.512,72.137 C 335.512,71.944 335.506,71.781 335.494,71.649 C 335.482,71.517 335.468,71.41 335.45,71.328 C 335.432,71.246 335.411,71.182 335.384,71.135 C 335.359,71.088 335.333,71.05 335.31,71.021 C 335.269,70.98 335.223,70.946 335.173,70.92 C 335.123,70.894 335.06,70.872 334.98,70.854 C 334.902,70.836 334.806,70.823 334.695,70.814 C 334.584,70.805 334.446,70.795 334.282,70.783 L 334.282,70.43 C 334.663,70.33 335.036,70.229 335.402,70.127 C 335.768,70.025 336.098,69.891 336.391,69.727 L 336.699,70.035 L 336.813,72.03 C 336.971,71.708 337.142,71.406 337.328,71.125 C 337.512,70.844 337.71,70.599 337.921,70.391 C 338.132,70.183 338.353,70.02 338.584,69.903 C 338.815,69.786 339.058,69.727 339.31,69.727 C 339.498,69.727 339.7,69.75 339.916,69.797 C 340.132,69.844 340.348,69.929 340.565,70.052 z "
   id="path154" />
	<path
   d="M 353.582,70.368 C 353.406,70.409 353.263,70.447 353.151,70.482 C 353.039,70.517 352.949,70.557 352.879,70.601 C 352.809,70.645 352.754,70.695 352.716,70.75 C 352.678,70.805 352.645,70.877 352.615,70.965 L 350.128,77.645 C 350.075,77.774 349.999,77.884 349.899,77.975 C 349.799,78.066 349.691,78.142 349.574,78.204 C 349.457,78.266 349.341,78.314 349.227,78.349 C 349.112,78.384 349.017,78.411 348.941,78.428 L 346.041,70.966 C 345.988,70.802 345.886,70.677 345.733,70.592 C 345.58,70.507 345.358,70.432 345.065,70.368 L 345.065,69.99 L 348.458,69.99 L 348.458,70.368 C 348.229,70.397 348.043,70.427 347.899,70.456 C 347.755,70.485 347.645,70.522 347.565,70.566 C 347.487,70.61 347.441,70.664 347.429,70.729 C 347.417,70.794 347.429,70.873 347.464,70.966 L 349.626,76.6 L 351.656,70.966 C 351.685,70.878 351.695,70.803 351.687,70.742 C 351.677,70.68 351.638,70.628 351.568,70.584 C 351.498,70.54 351.396,70.502 351.265,70.47 C 351.132,70.438 350.958,70.404 350.742,70.369 L 350.742,69.99 L 353.581,69.99 L 353.581,70.368 L 353.582,70.368 z "
   id="path156" />
	<path
   d="M 354.381,78.164 L 354.381,77.786 C 354.779,77.704 355.084,77.615 355.295,77.518 C 355.506,77.421 355.611,77.332 355.611,77.25 L 355.611,72.275 C 355.611,71.976 355.605,71.734 355.593,71.55 C 355.581,71.366 355.537,71.222 355.461,71.119 C 355.385,71.016 355.263,70.942 355.097,70.895 C 354.929,70.848 354.691,70.81 354.38,70.781 L 354.38,70.43 C 354.562,70.395 354.753,70.352 354.956,70.303 C 355.157,70.253 355.358,70.198 355.558,70.136 C 355.758,70.074 355.948,70.009 356.129,69.938 C 356.31,69.867 356.478,69.797 356.63,69.727 L 356.929,69.727 L 356.929,77.25 C 356.929,77.32 357.027,77.407 357.224,77.509 C 357.419,77.612 357.732,77.704 358.16,77.786 L 358.16,78.164 L 354.381,78.164 L 354.381,78.164 z M 357.194,67.081 C 357.194,67.245 357.168,67.4 357.115,67.547 C 357.062,67.694 356.99,67.821 356.899,67.929 C 356.808,68.037 356.702,68.124 356.579,68.188 C 356.456,68.252 356.321,68.285 356.175,68.285 C 355.911,68.285 355.722,68.212 355.609,68.065 C 355.494,67.919 355.437,67.711 355.437,67.441 C 355.437,67.277 355.463,67.122 355.516,66.975 C 355.569,66.828 355.642,66.701 355.736,66.593 C 355.83,66.485 355.936,66.4 356.056,66.338 C 356.176,66.276 356.307,66.246 356.448,66.246 C 356.945,66.246 357.194,66.524 357.194,67.081 z "
   id="path158" />
	<path
   d="M 366.255,73.269 C 366.15,73.386 366.009,73.495 365.833,73.594 C 365.657,73.693 365.476,73.782 365.288,73.858 L 360.665,73.858 C 360.671,74.315 360.733,74.75 360.853,75.163 C 360.973,75.576 361.146,75.939 361.373,76.253 C 361.598,76.566 361.87,76.817 362.189,77.004 C 362.508,77.191 362.868,77.285 363.266,77.285 C 363.448,77.285 363.624,77.273 363.798,77.25 C 363.97,77.227 364.156,77.174 364.356,77.092 C 364.556,77.01 364.776,76.89 365.019,76.732 C 365.262,76.574 365.548,76.36 365.876,76.09 C 365.952,76.131 366.018,76.19 366.073,76.266 C 366.128,76.342 366.172,76.404 366.201,76.451 C 365.808,76.879 365.464,77.223 365.169,77.484 C 364.872,77.745 364.594,77.945 364.333,78.086 C 364.072,78.227 363.815,78.319 363.56,78.363 C 363.306,78.407 363.029,78.429 362.73,78.429 C 362.279,78.429 361.849,78.332 361.443,78.139 C 361.035,77.946 360.676,77.672 360.366,77.317 C 360.056,76.962 359.808,76.535 359.623,76.034 C 359.439,75.533 359.347,74.972 359.347,74.351 C 359.347,73.958 359.391,73.572 359.479,73.191 C 359.567,72.81 359.694,72.45 359.862,72.11 C 360.028,71.77 360.232,71.457 360.472,71.17 C 360.712,70.883 360.985,70.634 361.289,70.423 C 361.418,70.335 361.562,70.249 361.725,70.164 C 361.885,70.079 362.054,70.004 362.23,69.94 C 362.406,69.876 362.58,69.824 362.752,69.786 C 362.924,69.748 363.091,69.729 363.249,69.729 C 363.63,69.729 363.97,69.782 364.269,69.887 C 364.568,69.992 364.829,70.135 365.051,70.313 C 365.273,70.491 365.461,70.7 365.614,70.937 C 365.767,71.174 365.891,71.425 365.987,71.688 C 366.085,71.952 366.153,72.22 366.194,72.492 C 366.235,72.764 366.255,73.022 366.255,73.269 z M 363.003,70.649 C 362.698,70.649 362.418,70.708 362.164,70.825 C 361.908,70.942 361.683,71.108 361.486,71.322 C 361.289,71.536 361.127,71.791 360.994,72.087 C 360.863,72.383 360.77,72.71 360.718,73.067 L 364.48,73.067 C 364.615,73.067 364.704,73.045 364.749,73.001 C 364.792,72.957 364.814,72.874 364.814,72.751 C 364.814,72.593 364.792,72.395 364.749,72.158 C 364.704,71.921 364.616,71.689 364.485,71.464 C 364.352,71.238 364.169,71.047 363.93,70.888 C 363.694,70.729 363.384,70.649 363.003,70.649 z "
   id="path160" />
	<path
   d="M 379.483,70.368 C 379.301,70.409 379.158,70.449 379.052,70.487 C 378.946,70.525 378.864,70.563 378.801,70.601 C 378.74,70.639 378.696,70.683 378.67,70.733 C 378.643,70.783 378.621,70.843 378.604,70.913 L 376.662,77.645 C 376.627,77.774 376.558,77.884 376.456,77.975 C 376.352,78.066 376.24,78.142 376.117,78.204 C 375.994,78.266 375.872,78.314 375.753,78.349 C 375.632,78.384 375.534,78.411 375.458,78.428 L 373.366,72.469 L 371.564,77.646 C 371.517,77.781 371.446,77.894 371.348,77.984 C 371.252,78.075 371.145,78.151 371.028,78.213 C 370.911,78.275 370.796,78.321 370.68,78.354 C 370.567,78.386 370.471,78.411 370.395,78.429 L 368.092,70.914 C 368.039,70.685 367.72,70.504 367.134,70.369 L 367.134,69.99 L 370.527,69.99 L 370.527,70.368 C 370.24,70.397 370.017,70.431 369.859,70.469 C 369.701,70.507 369.587,70.551 369.516,70.601 C 369.445,70.651 369.409,70.702 369.407,70.755 C 369.403,70.808 369.411,70.86 369.428,70.913 L 371.08,76.494 L 373.242,69.99 L 373.848,69.99 L 376.133,76.494 L 377.654,70.913 C 377.689,70.778 377.628,70.67 377.469,70.588 C 377.31,70.506 377.03,70.433 376.625,70.368 L 376.625,69.99 L 379.481,69.99 L 379.481,70.368 L 379.483,70.368 z "
   id="path162" />
</g>
</svg>